<svg width="35" height="35" viewBox="0 0 35 35" fill="none" xmlns="http://www.w3.org/2000/svg">
<circle cx="17.5" cy="17.5" r="17.5" fill="#303030"/>
<path d="M18.6928 21.0179C18.6928 22.6789 17.3856 24.0158 15.7908 24.0158C14.183 24.0158 12.8889 22.6654 12.8889 21.0179C12.8889 19.3705 14.1961 18.0201 15.7908 18.0201C16.0784 18.0201 16.366 18.0741 16.6405 18.1686V15.1167C16.3529 15.0762 16.0654 15.0492 15.7778 15.0492C12.5882 15.0492 10 17.723 10 21.0179C10 24.3129 12.5882 26.9867 15.7778 26.9867C18.9673 26.9867 21.5556 24.3129 21.5556 21.0179V13.9554C22.6405 14.8737 24.0915 15.5083 26 15.5083V12.5375C22.3791 12.5375 21.6863 8.86442 21.5686 8.01367H18.6928V21.0179Z" fill="white"/>
</svg>
