<svg width="28" height="28" viewBox="0 0 28 28" fill="none" xmlns="http://www.w3.org/2000/svg">
<g clip-path="url(#clip0_204_2399)">
<path d="M-7 0V28H34.9813V0H-7Z" fill="#003399"/>
<path d="M13.9911 3.18262L14.3178 4.18128H15.3631L14.5138 4.79728L14.8405 5.79595L13.9911 5.17062L13.1418 5.79595L13.4685 4.79728L12.6191 4.18128H13.6645L13.9911 3.18262Z" fill="#FFCC00"/>
<path d="M9.32415 4.43359L9.65081 5.43226H10.6961L9.84681 6.03893L10.1735 7.03759L9.32415 6.42159L8.47481 7.03759L8.80148 6.03893L7.95215 5.43226H8.99748L9.32415 4.43359Z" fill="#FFCC00"/>
<path d="M18.6572 4.43359L18.9838 5.43226H20.0292L19.1798 6.03893L19.5065 7.03759L18.6572 6.42159L17.8078 7.03759L18.1345 6.03893L17.2852 5.43226H18.3305L18.6572 4.43359Z" fill="#FFCC00"/>
<path d="M5.91692 7.8584L6.24359 8.85706H7.28892L6.43959 9.47306L6.76626 10.4717L5.91692 9.85573L5.06759 10.4717L5.39426 9.47306L4.54492 8.85706H5.59026L5.91692 7.8584Z" fill="#FFCC00"/>
<path d="M22.0546 7.8584L22.372 8.85706H23.4266L22.5773 9.47306L22.8946 10.4717L22.0546 9.85573L21.2053 10.4717L21.532 9.47306L20.6826 8.85706H21.728L22.0546 7.8584Z" fill="#FFCC00"/>
<path d="M4.67571 12.5156L5.00238 13.5143H6.04771L5.19838 14.1303L5.52504 15.1196L4.67571 14.5036L3.83571 15.1196L4.15304 14.1303L3.30371 13.5143H4.35838L4.67571 12.5156Z" fill="#FFCC00"/>
<path d="M23.3241 12.5156L23.6508 13.5143H24.6961L23.8468 14.1303L24.1735 15.1196L23.3241 14.5036L22.4748 15.1196L22.8015 14.1303L21.9521 13.5143H22.9975L23.3241 12.5156Z" fill="#FFCC00"/>
<path d="M5.89837 17.1641L6.22503 18.1627H7.27037L6.42103 18.7787L6.7477 19.7774L5.89837 19.1614L5.04903 19.7774L5.3757 18.7787L4.52637 18.1627H5.58103L5.89837 17.1641Z" fill="#FFCC00"/>
<path d="M22.0638 17.1641L22.3905 18.1627H23.4452L22.5958 18.7787L22.9132 19.7774L22.0638 19.1614L21.2238 19.7774L21.5412 18.7787L20.7012 18.1627H21.7465L22.0638 17.1641Z" fill="#FFCC00"/>
<path d="M9.30559 20.5889L9.63226 21.5782H10.6776L9.83759 22.1942L10.1549 23.1929L9.30559 22.5769L8.46559 23.1929L8.78293 22.1942L7.93359 21.5782H8.98826L9.30559 20.5889Z" fill="#FFCC00"/>
<path d="M18.6484 20.5889L18.975 21.5782H20.0204L19.1804 22.1942L19.4977 23.1929L18.6484 22.5769L17.799 23.1929L18.1257 22.1942L17.2764 21.5782H18.331L18.6484 20.5889Z" fill="#FFCC00"/>
<path d="M13.9911 21.8867L14.3178 22.8854H15.3631L14.5138 23.5014L14.8405 24.5001L13.9911 23.8841L13.1418 24.5001L13.4685 23.5014L12.6191 22.8854H13.6645L13.9911 21.8867Z" fill="#FFCC00"/>
</g>
<defs>
<clipPath id="clip0_204_2399">
<rect width="28" height="28" rx="14" fill="white"/>
</clipPath>
</defs>
</svg>
