<svg width="28" height="28" viewBox="0 0 28 28" fill="none" xmlns="http://www.w3.org/2000/svg">
<g clip-path="url(#clip0_204_2445)">
<path d="M-7 0H36V28H-7V0Z" fill="#EE1C25"/>
<path d="M16.5518 5.84275C16.3565 5.90382 16.1782 6.00806 16.0309 6.14737C15.8835 6.28667 15.771 6.45729 15.7022 6.64596C15.6333 6.83463 15.6099 7.03627 15.6338 7.23521C15.6576 7.43416 15.7282 7.62504 15.8399 7.79303C16.0116 8.05139 16.1233 8.34337 16.1671 8.64844C16.2109 8.9535 16.1857 9.26423 16.0933 9.55875C16.0008 9.85328 15.8435 10.1244 15.6322 10.3532C15.4209 10.5819 15.1609 10.7626 14.8704 10.8826C14.5843 11.0008 14.3333 11.1875 14.1408 11.4256C13.9482 11.6637 13.8202 11.9454 13.7687 12.2447C13.7171 12.5439 13.7437 12.851 13.846 13.1375C13.9482 13.424 14.1229 13.6807 14.3537 13.8838C13.6595 13.4014 13.1857 12.6732 13.0334 11.8545C12.8811 11.0358 13.0622 10.1913 13.5382 9.50121C13.5197 9.48575 13.5021 9.46943 13.4852 9.45231C12.9981 10.1531 12.8093 11.0115 12.9587 11.8458C13.1081 12.6801 13.584 13.425 14.2857 13.9227C13.3016 13.5377 12.497 12.8125 12.0252 11.8852C11.5535 10.958 11.4475 9.89367 11.7276 8.89506C12.0077 7.89644 12.6542 7.03342 13.5439 6.4705C14.4336 5.90757 15.5043 5.68413 16.5518 5.84275Z" fill="white"/>
<path d="M14.5953 8.45144L13.2783 9.01245L14.6814 9.31468L13.7282 8.26465L13.8674 9.66141" fill="#EE1C25"/>
<path d="M23.078 13.4161C22.9574 13.2521 22.8002 13.1172 22.6188 13.0219C22.4373 12.9266 22.2363 12.8735 22.0316 12.8667C21.8268 12.8599 21.6237 12.8995 21.4381 12.9826C21.2525 13.0656 21.0894 13.1898 20.9614 13.3455C20.7645 13.585 20.5162 13.7786 20.2338 13.9126C19.9514 14.0467 19.6419 14.118 19.327 14.1214C19.0121 14.1249 18.6995 14.0605 18.4112 13.9327C18.1228 13.805 17.8658 13.617 17.6581 13.382C17.4535 13.1505 17.1934 12.9728 16.9019 12.8654C16.6103 12.7579 16.2967 12.7242 15.99 12.7674C15.6834 12.8105 15.3937 12.9291 15.1477 13.1122C14.9016 13.2953 14.7073 13.5369 14.5826 13.8147C14.8329 13.0184 15.391 12.3531 16.1379 11.9607C16.8848 11.5684 17.7613 11.48 18.5807 11.7145C18.5899 11.6925 18.6001 11.671 18.6115 11.65C17.7783 11.4085 16.8859 11.4939 16.1229 11.8883C15.36 12.2826 14.7864 12.955 14.5236 13.763C14.5883 12.7253 15.0396 11.7515 15.7915 11.0273C16.5434 10.3032 17.5433 9.87922 18.6005 9.83634C19.6578 9.79345 20.6985 10.1346 21.5243 10.7948C22.35 11.455 22.9031 12.388 23.078 13.4161Z" fill="white"/>
<path d="M19.933 12.3779L18.9764 11.3196L19.1233 12.7212L19.8422 11.5116L18.5321 12.0671" fill="#EE1C25"/>
<path d="M7.9328 19.433C8.12702 19.495 8.33356 19.5124 8.53637 19.4836C8.73918 19.4548 8.93279 19.3807 9.10216 19.2671C9.27153 19.1535 9.4121 19.0033 9.51294 18.8284C9.61378 18.6534 9.67218 18.4583 9.68359 18.2583C9.70115 17.9506 9.7874 17.65 9.93626 17.3776C10.0851 17.1052 10.293 16.8677 10.5452 16.6816C10.7974 16.4956 11.0879 16.3656 11.3962 16.3009C11.7044 16.2361 12.023 16.2381 12.3294 16.3068C12.6313 16.3745 12.9462 16.3664 13.2451 16.2834C13.544 16.2003 13.8171 16.045 14.0393 15.8318C14.2614 15.6186 14.4253 15.3544 14.5159 15.0636C14.6064 14.7728 14.6207 14.4649 14.5573 14.1683C14.8254 14.9561 14.7676 15.8173 14.3961 16.5683C14.0247 17.3192 13.3691 17.9005 12.569 18.1882C12.5746 18.2113 12.579 18.2346 12.5822 18.2581C13.3976 17.9681 14.0678 17.3799 14.451 16.618C14.8343 15.8561 14.9004 14.9802 14.6355 14.1757C15.196 15.0501 15.4065 16.0979 15.227 17.1194C15.0474 18.1408 14.4903 19.0645 13.6619 19.7142C12.8335 20.364 11.7917 20.6944 10.7351 20.6426C9.67853 20.5907 8.68104 20.1601 7.9328 19.433Z" fill="white"/>
<path d="M11.0849 18.4354L12.4861 18.733L11.5371 17.6857L11.6714 19.0827L12.4031 17.8696" fill="#EE1C25"/>
<path d="M17.7834 21.7764C17.903 21.6158 17.9828 21.4299 18.0165 21.233C18.0502 21.0362 18.037 20.8336 17.9779 20.6412C17.9187 20.4487 17.8152 20.2716 17.6755 20.1234C17.5357 19.9753 17.3634 19.8602 17.172 19.787C16.8776 19.6745 16.611 19.5006 16.391 19.2775C16.1709 19.0544 16.0027 18.7875 15.8983 18.4957C15.7938 18.2038 15.7557 17.8941 15.7864 17.5883C15.8172 17.2824 15.9162 16.988 16.0764 16.7255C16.2343 16.4671 16.3223 16.1728 16.3324 15.8699C16.3425 15.5671 16.2744 15.2655 16.1343 14.993C15.9942 14.7205 15.7867 14.486 15.531 14.3112C15.2753 14.1364 14.9796 14.0268 14.6713 13.9928C15.5205 13.9908 16.342 14.3138 16.9605 14.8927C17.579 15.4717 17.9457 16.2609 17.9824 17.092C18.0065 17.0941 18.0306 17.0974 18.0545 17.1017C18.0203 16.2556 17.6513 15.4508 17.0257 14.8574C16.4 14.2641 15.5668 13.9289 14.7023 13.9226C15.725 13.6769 16.8099 13.8096 17.7504 14.2955C18.6909 14.7813 19.4212 15.5863 19.802 16.5569C20.1828 17.5276 20.1875 18.596 19.8152 19.5586C19.4429 20.5212 18.7197 21.3106 17.7834 21.7764Z" fill="white"/>
<path d="M17.7678 18.5423L18.4853 17.3363L17.1744 17.8883L18.578 18.2012L17.6178 17.143" fill="#EE1C25"/>
<path d="M7.18769 9.57336C7.18693 9.7736 7.23346 9.97135 7.32368 10.1513C7.4139 10.3312 7.54538 10.4884 7.70789 10.6107C7.87041 10.733 8.05959 10.8171 8.26072 10.8564C8.46186 10.8958 8.66954 10.8894 8.86763 10.8376C9.17226 10.758 9.49111 10.7446 9.80175 10.7983C10.1124 10.852 10.4073 10.9715 10.6656 11.1484C10.924 11.3253 11.1395 11.5553 11.2971 11.8222C11.4547 12.0891 11.5505 12.3864 11.5778 12.6933C11.6046 12.9955 11.7091 13.2863 11.8816 13.5387C12.0541 13.7912 12.289 13.9971 12.5645 14.1375C12.8401 14.2779 13.1474 14.3482 13.458 14.3419C13.7686 14.3356 14.0725 14.2528 14.3416 14.1013C13.6575 14.5967 12.8021 14.8113 11.9577 14.6996C11.1132 14.5878 10.3466 14.1584 9.82128 13.503C9.80053 13.5154 9.77918 13.5268 9.75731 13.5371C10.2896 14.2061 11.0674 14.6469 11.9262 14.7662C12.7849 14.8855 13.6572 14.674 14.3584 14.1765C13.6798 14.9711 12.7252 15.4939 11.6766 15.6451C10.6279 15.7964 9.55853 15.5656 8.67228 14.9967C7.78604 14.4278 7.14491 13.5606 6.87112 12.5604C6.59732 11.5602 6.71001 10.497 7.18769 9.57336Z" fill="white"/>
<path d="M9.12545 12.1971L9.26558 13.5936L9.99294 12.3842L8.67592 12.9446L10.0795 13.2473" fill="#EE1C25"/>
</g>
<defs>
<clipPath id="clip0_204_2445">
<rect width="28" height="28" rx="14" fill="white"/>
</clipPath>
</defs>
</svg>
