<svg width="76" height="76" viewBox="0 0 76 76" fill="none" xmlns="http://www.w3.org/2000/svg">
<circle cx="38" cy="38" r="38" fill="#06C755"/>
<path d="M59.332 34.984C59.332 25.436 49.76 17.668 37.994 17.668C26.228 17.668 16.656 25.436 16.656 34.984C16.656 43.544 24.256 50.714 34.5 52.068C35.196 52.218 36.142 52.526 36.38 53.12C36.596 53.66 36.522 54.506 36.45 55.05C36.45 55.05 36.2 56.556 36.146 56.876C36.052 57.416 35.716 58.986 37.994 58.028C40.272 57.07 50.282 50.792 54.758 45.638C57.85 42.248 59.332 38.8 59.332 34.984Z" fill="white"/>
<path d="M52.232 40.4982H46.232C46.1259 40.4982 46.0242 40.456 45.9492 40.381C45.8742 40.306 45.832 40.2043 45.832 40.0982V30.7882C45.832 30.6821 45.8742 30.5804 45.9492 30.5053C46.0242 30.4303 46.1259 30.3882 46.232 30.3882H52.232C52.3381 30.3882 52.4399 30.4303 52.5149 30.5053C52.5899 30.5804 52.632 30.6821 52.632 30.7882V32.3022C52.632 32.4083 52.5899 32.51 52.5149 32.585C52.4399 32.66 52.3381 32.7022 52.232 32.7022H48.158V34.2722H52.232C52.3381 34.2722 52.4399 34.3143 52.5149 34.3893C52.5899 34.4644 52.632 34.5661 52.632 34.6722V36.2002C52.632 36.3063 52.5899 36.408 52.5149 36.483C52.4399 36.558 52.3381 36.6002 52.232 36.6002H48.158V38.1722H52.232C52.3381 38.1722 52.4399 38.2143 52.5149 38.2893C52.5899 38.3644 52.632 38.4661 52.632 38.5722V40.0842C52.6339 40.1379 52.625 40.1914 52.6057 40.2416C52.5864 40.2917 52.5573 40.3375 52.5199 40.3761C52.4826 40.4148 52.4379 40.4455 52.3884 40.4665C52.3389 40.4874 52.2858 40.4982 52.232 40.4982Z" fill="#06C755"/>
<path d="M30.058 40.4977C30.1641 40.4977 30.2658 40.4556 30.3408 40.3806C30.4159 40.3056 30.458 40.2038 30.458 40.0977V38.5857C30.458 38.4797 30.4159 38.3779 30.3408 38.3029C30.2658 38.2279 30.1641 38.1857 30.058 38.1857H25.984V30.7857C25.984 30.6797 25.9419 30.5779 25.8668 30.5029C25.7918 30.4279 25.6901 30.3857 25.584 30.3857H24.064C23.9579 30.3857 23.8562 30.4279 23.7812 30.5029C23.7061 30.5779 23.664 30.6797 23.664 30.7857V40.0917C23.664 40.1978 23.7061 40.2996 23.7812 40.3746C23.8562 40.4496 23.9579 40.4917 24.064 40.4917H30.064L30.058 40.4977Z" fill="#06C755"/>
<path d="M33.666 30.3701H32.154C31.9287 30.3701 31.746 30.5528 31.746 30.7781V40.0901C31.746 40.3154 31.9287 40.4981 32.154 40.4981H33.666C33.8914 40.4981 34.074 40.3154 34.074 40.0901V30.7781C34.074 30.5528 33.8914 30.3701 33.666 30.3701Z" fill="#06C755"/>
<path d="M43.968 30.3701H42.456C42.3499 30.3701 42.2482 30.4123 42.1732 30.4873C42.0982 30.5623 42.056 30.664 42.056 30.7701V36.3021L37.796 30.5481C37.7863 30.5329 37.7749 30.5188 37.762 30.5061L37.738 30.4821L37.716 30.4641H37.704L37.682 30.4481H37.67L37.648 30.4361H37.634H37.612H37.598H37.574H37.558H37.534H37.518H37.496H35.954C35.8479 30.4361 35.7462 30.4783 35.6712 30.5533C35.5962 30.6283 35.554 30.73 35.554 30.8361V40.1481C35.554 40.2542 35.5962 40.3559 35.6712 40.431C35.7462 40.506 35.8479 40.5481 35.954 40.5481H37.468C37.5741 40.5481 37.6758 40.506 37.7509 40.431C37.8259 40.3559 37.868 40.2542 37.868 40.1481V34.5621L42.134 40.3221C42.162 40.3629 42.1972 40.3982 42.238 40.4261L42.262 40.4421H42.274L42.294 40.4521H42.314H42.328H42.356C42.3914 40.4608 42.4276 40.4655 42.464 40.4661H43.968C44.0741 40.4661 44.1758 40.424 44.2509 40.349C44.3259 40.2739 44.368 40.1722 44.368 40.0661V30.7781C44.3691 30.7249 44.3595 30.672 44.3399 30.6226C44.3203 30.5731 44.291 30.5281 44.2537 30.4901C44.2165 30.4521 44.172 30.4219 44.123 30.4013C44.0739 30.3807 44.0212 30.3701 43.968 30.3701Z" fill="#06C755"/>
</svg>
