<svg width="28" height="28" viewBox="0 0 28 28" fill="none" xmlns="http://www.w3.org/2000/svg">
<g clip-path="url(#clip0_204_2434)">
<path d="M0 0H41.5758V28H0V0Z" fill="#EE1C25"/>
<path d="M6.92968 2.7998L9.37344 10.3977L2.97559 5.70193H10.8838L4.48592 10.3977L6.92968 2.7998Z" fill="#FFFF00"/>
<path d="M14.4004 1.51126L14.169 4.16394L12.8128 1.88047L15.2386 2.92252L12.6698 3.51991L14.4004 1.51126Z" fill="#FFFF00"/>
<path d="M17.6248 4.62561L16.3925 6.97969L16.0197 4.3435L17.8552 6.25486L15.2581 5.7984L17.6248 4.62561Z" fill="#FFFF00"/>
<path d="M17.9324 9.32008L15.8567 10.9616L16.5809 8.40106L17.4849 10.9026L15.2981 9.41556L17.9324 9.32008Z" fill="#FFFF00"/>
<path d="M14.3475 11.2901L14.2252 13.9502L12.7764 11.7255L15.2429 12.665L12.7008 13.3695L14.3475 11.2901Z" fill="#FFFF00"/>
</g>
<defs>
<clipPath id="clip0_204_2434">
<rect width="28" height="28" rx="14" fill="white"/>
</clipPath>
</defs>
</svg>
