<svg width="28" height="28" viewBox="0 0 28 28" fill="none" xmlns="http://www.w3.org/2000/svg">
<g clip-path="url(#clip0_204_2417)">
<path d="M0 0H42V28H0V0Z" fill="#EEEEEE"/>
<path d="M0 0H42V14H0V0Z" fill="#ED2939"/>
<path d="M8.87055 12.1532C11.7164 12.1532 14.0233 9.84623 14.0233 7.00043C14.0233 4.15463 11.7164 1.84766 8.87055 1.84766C6.02475 1.84766 3.71777 4.15463 3.71777 7.00043C3.71777 9.84623 6.02475 12.1532 8.87055 12.1532Z" fill="white"/>
<path d="M11.2036 12.1532C14.0494 12.1532 16.3563 9.84623 16.3563 7.00043C16.3563 4.15463 14.0494 1.84766 11.2036 1.84766C8.35776 1.84766 6.05078 4.15463 6.05078 7.00043C6.05078 9.84623 8.35776 12.1532 11.2036 12.1532Z" fill="#ED2939"/>
<path d="M11.6901 2.70312L10.9015 5.13022L12.9661 3.63019H10.4141L12.4787 5.13022L11.6901 2.70312Z" fill="white"/>
<path d="M15.7771 5.67253L13.2251 5.67253L15.2897 7.17256L14.5011 4.74546L13.7125 7.17256L15.7771 5.67253Z" fill="white"/>
<path d="M9.16398 10.4765L11.2286 8.97652L8.67659 8.97652L10.7412 10.4765L9.9526 8.04945L9.16398 10.4765Z" fill="white"/>
<path d="M14.2157 10.4766L13.4271 8.04948L12.6385 10.4766L14.7031 8.97655L12.1511 8.97655L14.2157 10.4766Z" fill="white"/>
<path d="M7.60329 5.67219L9.6679 7.17222L8.87929 4.74512L8.09068 7.17222L10.1553 5.67219L7.60329 5.67219Z" fill="white"/>
</g>
<defs>
<clipPath id="clip0_204_2417">
<rect width="28" height="28" rx="14" fill="white"/>
</clipPath>
</defs>
</svg>
