<svg width="28" height="28" viewBox="0 0 28 28" fill="none" xmlns="http://www.w3.org/2000/svg">
<g clip-path="url(#clip0_204_2468)">
<path d="M34.4815 0H-7V28H34.4815V0Z" fill="#D40000"/>
<path d="M10.1624 11.2339C9.97794 10.8014 9.69303 10.4549 9.17735 10.3062C8.93501 10.1702 8.75532 9.99354 8.66926 9.75598C8.19796 8.47792 7.70813 9.02073 7.21756 9.63732C6.85141 9.94429 6.48159 10.2302 6.07694 10.317C5.74882 10.3574 5.3806 10.3068 5.25778 10.8132C5.23623 11.0403 5.13711 11.1463 4.99854 11.1908C4.66445 11.2898 4.83207 11.5379 4.88448 11.7517C5.05093 12.1128 5.04524 12.3273 4.99854 12.5069C4.76717 12.9254 5.03365 13.0725 5.4859 12.7119L5.95251 12.4098C6.15552 12.2679 6.19135 12.0488 6.22212 11.8273C6.22635 11.4968 6.43397 11.2604 6.60578 11.0074C6.59154 11.1495 6.65587 11.3042 6.73021 11.4605C6.85685 11.7427 6.92722 12.0195 6.8339 12.2803C7.15487 12.0122 7.16961 11.542 7.21756 11.0937L7.36273 11.5468C7.56505 11.2888 7.57083 10.8809 7.57012 10.468C7.64332 11.3541 7.79389 10.9255 7.95378 10.3385C8.0239 10.3359 8.06674 10.4043 8.07821 10.5543C7.80317 11.0867 7.84882 11.4699 8.31671 11.1584C8.21297 11.5809 8.3297 11.9461 8.77295 12.2264L9.55065 12.9923L10.1624 11.2339Z" fill="white" stroke="#070707" stroke-width="0.2"/>
<path d="M13.8932 16.7816C13.6793 17.2519 13.543 17.7694 13.7586 18.5013C13.851 18.9226 13.9469 19.3458 13.0763 19.2612C12.2901 19.2014 11.3362 18.7564 10.9524 19.6211C10.839 19.8144 10.8362 20.0077 10.4623 20.201C10.2008 20.3539 10.2266 20.5256 10.3085 20.701C10.4709 21.0522 10.3189 21.2217 10.2701 21.4508L11.3176 21.4208C11.3739 21.2177 11.2457 21.114 11.135 21.0009C11.2342 21.0987 11.3467 21.2422 11.3849 21.4308C11.7345 21.3512 11.7646 20.9839 11.7885 20.611C11.5895 20.2298 11.7241 19.9412 12.1537 20.281C12.1071 20.1271 11.9953 19.9671 11.8795 19.8066C12.0103 19.9475 12.1405 20.0927 12.265 20.273C12.6215 20.3342 12.9537 20.3131 13.2589 20.201L14.6812 20.171C15.4665 20.1284 15.197 19.5243 15.2674 19.1012C15.3958 18.7346 15.5988 18.7823 15.7768 18.6913L15.9786 17.3415L15.1617 16.4717L13.8932 16.7816Z" fill="white" stroke="#0B0B0B" stroke-width="0.2"/>
<path d="M14.7573 11.4827L15.6126 9.41303L11.9415 10.1829C10.6739 10.4727 9.60766 11.1081 9.3563 13.1424C9.24831 15.0985 10.4631 15.8185 11.8454 16.3818L13.5368 16.3618C13.85 17.0164 14.1829 17.4653 14.6228 16.8018C14.8055 16.6016 15.0006 16.6453 15.209 16.9517C15.3607 17.1694 15.4083 17.4787 15.8721 17.4217C15.2286 17.9694 15.4683 19.3079 16.516 19.8612C17.3523 20.2544 17.9928 20.5556 17.2368 21.421C17.0788 21.5555 16.9553 21.5579 16.7274 21.9609C16.6529 22.066 16.5879 22.1698 16.3142 22.3008C16.0279 22.4834 15.7751 22.6717 15.6414 22.8807C15.5956 23.0832 15.4437 23.3015 15.2186 23.5306C14.8932 23.7051 14.9928 23.8519 15.0648 24.0005C14.488 25.1637 15.0268 25.1025 15.4973 24.9304L16.2853 24.6104C16.6503 24.4858 16.5854 24.1771 16.5256 23.8705C16.7219 23.8749 16.6869 23.6385 16.6313 23.3806H16.7466C16.721 23.5979 16.8459 23.7776 16.9581 23.9605L17.1791 23.7406C17.0845 23.5173 17.1036 23.294 17.1214 23.0707C17.1699 23.2768 17.1972 23.4789 17.3809 23.7106C17.5659 24.0062 17.4339 24.3622 17.304 24.4105C17.6042 24.229 18.0758 23.9479 17.65 23.1207C17.5437 22.8257 17.52 22.5393 17.6692 22.2708C17.532 22.7548 17.7738 23.746 18.217 22.2108L18.39 21.6909C18.3998 22.0922 18.7314 21.8625 18.8609 21.521C19.0192 21.3534 19.0962 21.1953 19.1396 21.041C19.4883 20.7167 19.606 20.4057 19.2645 20.1212L19.1012 19.9212C19.1288 19.622 18.9276 19.3853 18.7167 19.1514C18.5799 18.9285 18.7231 18.7454 18.8609 18.5615C19.5608 17.7208 20.4735 16.9194 20.1583 15.8919C20.2913 16.0781 20.3523 16.2783 20.7595 16.411C20.9272 16.5064 21.3667 16.5778 21.1605 16.8988C21.0686 16.9778 20.8422 17.4262 21.8197 17.4644C21.6454 17.3842 21.4776 17.1599 21.7177 16.9059C22.0347 16.5302 21.9134 16.29 21.5614 16.1211C22.0901 16.0137 22.4405 15.776 22.3021 15.1809C22.2849 14.858 22.2921 14.5351 22.737 14.2123C22.3878 14.2227 22.0831 14.306 21.8604 14.5234C22.085 14.2526 22.2977 13.9735 22.3089 13.5548C22.3016 13.2414 22.2188 12.9279 22.0303 12.6145C22.2047 12.8673 22.302 13.189 22.3497 13.5548C22.5813 12.9106 22.3415 12.2721 21.4867 11.7166C21.1959 11.4998 21.1025 11.283 21.1741 11.0662C21.2024 10.7364 21.1073 10.4336 20.4537 10.2532C20.1559 10.2662 19.8796 9.36863 20.5149 9.15734C19.6455 8.85074 19.4203 9.48249 19.8965 9.99865C19.7403 10.0952 19.6433 10.2628 19.6935 10.5092C19.7397 10.7356 20.1563 11.1113 20.0256 11.3843C19.8989 11.173 19.6766 10.9948 19.3869 10.84C18.5595 10.4883 18.7591 9.41255 19.2985 8.82506C20.0357 8.0224 20.9286 7.30532 20.746 5.99711C20.6277 5.18011 19.4534 4.65048 18.7888 5.26892C18.4789 5.61654 18.4754 6.31453 19.1082 6.20214C18.7397 5.79022 19.0807 5.01059 19.937 5.54141C20.7173 6.3016 20.1019 7.2709 19.7198 7.5242C20.0665 7.05954 20.4309 6.59872 20.0188 5.96883C20.0262 6.36103 19.8415 6.98266 19.2509 7.55248C17.9164 8.75316 16.3839 9.9168 18.1773 11.7025C17.8743 11.4685 17.7102 11.1766 17.2463 11.0096C16.9827 10.9083 16.844 10.7527 16.7978 10.5572C16.8144 11.1099 16.9365 11.6161 17.5453 11.9075C17.77 12.0203 17.9855 12.1402 18.1093 12.3317C18.1632 12.6609 18.4428 12.8157 18.9451 12.7983C19.4624 12.8042 19.9159 12.972 20.2703 13.3922C20.5564 13.8222 20.8159 13.9616 21.0857 14.1487C20.861 14.0459 20.6394 13.9978 20.4062 13.7457C20.1119 13.4557 19.7283 13.1077 19.3325 13.6255C19.6441 13.5945 19.8746 13.7323 19.9781 14.1345C20.0544 14.6217 20.3368 14.8103 20.6644 14.9334C21.4342 15.1992 20.285 15.8876 19.9441 15.2657C19.1404 13.5147 17.8072 13.0638 16.3696 12.869C15.9471 12.3073 15.4172 11.8386 14.7573 11.4827Z" fill="white" stroke="black" stroke-width="0.2"/>
<path d="M11.2786 12.7924C10.6246 12.74 9.84604 12.947 9.04901 13.1923C8.98286 13.2248 8.52775 13.313 7.915 13.0823C7.2414 12.8068 6.92256 13.1266 6.80981 13.7922C6.41459 14.0708 6.40564 14.387 6.58877 14.722C6.90714 15.421 6.8635 16.1011 6.82903 16.7817C6.68871 17.4778 7.01832 17.8517 7.67474 18.0015L7.36721 17.9615C7.30082 18.2436 7.30012 18.5138 7.64591 18.7213C8.13314 19.5953 8.96996 19.6743 9.10668 18.5614V17.5615C8.64526 17.5963 8.29953 17.2879 8.2033 16.9816C8.50746 16.716 8.67827 16.3243 8.62616 15.7218C8.56068 15.9374 8.38402 16.2974 7.915 16.2718C8.10664 15.7833 8.02344 15.3767 7.59786 15.072L7.50175 16.8517C7.52217 16.3202 7.47361 15.8503 7.36721 15.4319C7.57805 16.0079 7.46645 15.3258 7.48253 15.1419C7.85908 14.8651 7.98694 14.458 8.19369 14.0921L8.05915 14.582C8.32634 14.6237 8.57648 14.5933 8.88564 14.812C9.13968 15.0038 9.80659 15.2132 10.2503 15.002C10.5363 14.9457 10.811 14.9935 11.0672 15.2119C11.0818 14.9722 11.2903 14.8411 11.5381 14.732C11.8257 14.5866 11.8834 14.4811 11.9609 14.3721" fill="white"/>
<path d="M11.2786 12.7924C10.6246 12.74 9.84604 12.947 9.04901 13.1923C8.98286 13.2248 8.52775 13.313 7.915 13.0823C7.2414 12.8068 6.92256 13.1266 6.80981 13.7922C6.41459 14.0708 6.40564 14.387 6.58877 14.722C6.90714 15.421 6.8635 16.1011 6.82903 16.7817C6.68871 17.4778 7.01832 17.8517 7.67474 18.0015L7.36721 17.9615C7.30082 18.2436 7.30012 18.5138 7.64591 18.7213C8.13314 19.5953 8.96996 19.6743 9.10668 18.5614V17.5615C8.64526 17.5963 8.29953 17.2879 8.2033 16.9816C8.50746 16.716 8.67827 16.3243 8.62616 15.7218C8.56068 15.9374 8.38402 16.2974 7.915 16.2718C8.10664 15.7833 8.02344 15.3767 7.59786 15.072L7.50175 16.8517C7.52217 16.3202 7.47361 15.8503 7.36721 15.4319C7.57805 16.0079 7.46645 15.3258 7.48253 15.1419C7.85908 14.8651 7.98694 14.458 8.19369 14.0921L8.05915 14.582C8.32634 14.6237 8.57648 14.5933 8.88564 14.812C9.13968 15.0038 9.80659 15.2132 10.2503 15.002C10.5363 14.9457 10.811 14.9935 11.0672 15.2119C11.0818 14.9722 11.2903 14.8411 11.5381 14.732C11.8257 14.5866 11.8834 14.4811 11.9609 14.3721" stroke="#0B0B0B" stroke-width="0.2"/>
<path d="M12.3744 10.6029C12.1618 10.8053 11.8363 10.7261 12.1053 10.4529C11.8782 10.5008 11.6424 10.5185 11.4518 10.6929C11.4782 10.5687 11.5667 10.4538 11.6825 10.3429C11.4611 10.3608 11.2762 10.4354 11.1059 10.5329C11.1241 9.74087 11.9579 9.35231 12.6147 8.87318C12.2824 9.09886 11.8116 9.41146 11.6344 9.53307C11.4592 9.46928 11.2691 9.42486 11.1923 9.23312C11.2551 8.93518 11.391 8.71326 11.7594 8.7332C11.9063 8.69399 11.9286 8.50798 11.7786 8.43325C11.3023 8.4248 10.9639 8.63516 10.731 9.01315C10.5895 9.14822 10.4916 9.11058 10.4139 8.99316C10.2794 8.83985 10.2042 8.68654 9.95261 8.53324C9.54462 8.27736 9.9052 8.08954 10.0583 7.88335C10.4366 7.43365 10.4954 6.71809 10.6157 6.05366C10.6802 5.664 10.7717 5.29408 11.1923 5.16382C10.7795 5.14997 10.3787 5.19046 9.91417 4.94385C10.2826 5.03958 10.651 5.10462 11.0194 5.01384C10.4556 5.1756 9.91893 4.89285 9.35513 4.8373C8.99999 4.78849 8.77815 4.99449 8.71288 5.30379C8.6075 6.03269 9.31886 5.75562 9.33755 5.36378C10.0844 6.04247 8.66313 7.24711 8.41496 5.38378C8.20729 5.49124 8.33557 5.94454 8.57834 6.26363C7.7958 5.82991 7.88318 4.70471 8.93392 4.53392C9.61755 3.68736 10.4968 4.07746 11.4134 4.70389L10.7695 4.29396C10.5906 3.9645 11.1106 4.31807 11.4999 4.54392C11.5102 4.39465 11.5505 4.27668 11.7401 4.31396C11.7158 3.97338 11.8576 3.92682 11.9854 4.11146C12.0779 4.24509 12.1731 4.36915 12.2495 4.40394C11.712 4.01211 11.9122 3.51656 12.0188 3.03418C12.5209 3.26329 13.2639 3.30063 12.8934 4.22397C13.0819 4.14687 13.0711 3.86227 13.0856 3.60408C13.2172 3.4543 13.3339 3.2952 13.2874 3.03418C13.4814 3.2808 13.4894 3.52743 13.5277 3.77405C13.5438 3.92989 13.6332 3.97888 13.7391 4.00401C14.3629 3.66786 14.3429 3.90338 14.3734 4.094C14.5272 3.96369 14.7629 4.02987 15.1518 4.46394L15.8822 4.87386C16.3226 5.07321 16.3011 5.46014 15.8053 5.50376C15.8605 5.4797 16.0545 5.53859 16.2224 5.71023C16.4127 5.90486 16.5881 6.01742 16.7375 6.06366C16.615 6.11146 16.4932 6.16417 16.3531 6.08366C16.5099 6.26565 16.6089 6.50101 16.6029 6.83353C16.6056 7.26219 16.7677 7.57471 16.9489 7.87335C16.8567 7.89002 16.7597 7.88421 16.6318 7.73337C16.7191 7.94542 16.8268 8.12784 16.651 8.72321C16.4662 9.231 16.6192 9.55666 16.7855 9.86301C16.5521 9.82297 16.3614 9.70278 16.2185 9.49307C16.2469 9.7724 16.2149 10.0039 16.0263 10.4429C15.9169 10.7621 15.9016 11.1441 16.0456 11.6327C15.7701 11.3394 15.747 11.0461 15.7765 10.7529C15.5728 11.1752 15.404 11.6542 14.9211 11.6227C14.2685 11.7021 14.2339 12.1015 14.6424 12.5725C14.0484 12.0991 13.9544 11.5928 14.5752 11.0628C14.9249 10.6719 15.1275 10.2857 15.2191 9.903C14.9876 10.1693 14.8534 10.5143 14.3157 10.5329C13.9661 10.5575 13.7885 10.6776 13.7102 10.8528C13.6538 10.9867 13.6075 11.1268 13.3193 11.1224C13.0447 11.1182 12.9479 11.5075 12.9991 11.8327C12.7994 11.5838 12.7616 10.9231 13.2778 10.7029C13.2183 10.4114 13.2044 10.0823 13.7102 9.933" fill="white"/>
<path d="M12.3744 10.6029C12.1618 10.8053 11.8363 10.7261 12.1053 10.4529C11.8782 10.5008 11.6424 10.5185 11.4518 10.6929C11.4782 10.5687 11.5667 10.4538 11.6825 10.3429C11.4611 10.3608 11.2762 10.4354 11.1059 10.5329C11.1241 9.74087 11.9579 9.35231 12.6147 8.87318C12.2824 9.09886 11.8116 9.41146 11.6344 9.53307C11.4592 9.46928 11.2691 9.42486 11.1923 9.23312C11.2551 8.93518 11.391 8.71326 11.7594 8.7332C11.9063 8.69399 11.9286 8.50798 11.7786 8.43325C11.3023 8.4248 10.9639 8.63516 10.731 9.01315C10.5895 9.14822 10.4916 9.11058 10.4139 8.99316C10.2794 8.83985 10.2042 8.68654 9.95261 8.53324C9.54462 8.27736 9.9052 8.08954 10.0583 7.88335C10.4366 7.43365 10.4954 6.71809 10.6157 6.05366C10.6802 5.664 10.7717 5.29408 11.1923 5.16382C10.7795 5.14997 10.3787 5.19046 9.91417 4.94385C10.2826 5.03958 10.651 5.10462 11.0194 5.01384C10.4556 5.1756 9.91893 4.89285 9.35513 4.8373C8.99999 4.78849 8.77815 4.99449 8.71288 5.30379C8.6075 6.03269 9.31886 5.75562 9.33755 5.36378C10.0844 6.04247 8.66313 7.24711 8.41496 5.38378C8.20729 5.49124 8.33557 5.94454 8.57834 6.26363C7.7958 5.82991 7.88318 4.70471 8.93392 4.53392C9.61755 3.68736 10.4968 4.07746 11.4134 4.70389L10.7695 4.29396C10.5906 3.9645 11.1106 4.31807 11.4999 4.54392C11.5102 4.39465 11.5505 4.27668 11.7401 4.31396C11.7158 3.97338 11.8576 3.92682 11.9854 4.11146C12.0779 4.24509 12.1731 4.36915 12.2495 4.40394C11.712 4.01211 11.9122 3.51656 12.0188 3.03418C12.5209 3.26329 13.2639 3.30063 12.8934 4.22397C13.0819 4.14687 13.0711 3.86227 13.0856 3.60408C13.2172 3.4543 13.3339 3.2952 13.2874 3.03418C13.4814 3.2808 13.4894 3.52743 13.5277 3.77405C13.5438 3.92989 13.6332 3.97888 13.7391 4.00401C14.3629 3.66786 14.3429 3.90338 14.3734 4.094C14.5272 3.96369 14.7629 4.02987 15.1518 4.46394L15.8822 4.87386C16.3226 5.07321 16.3011 5.46014 15.8053 5.50376C15.8605 5.4797 16.0545 5.53859 16.2224 5.71023C16.4127 5.90486 16.5881 6.01742 16.7375 6.06366C16.615 6.11146 16.4932 6.16417 16.3531 6.08366C16.5099 6.26565 16.6089 6.50101 16.6029 6.83353C16.6056 7.26219 16.7677 7.57471 16.9489 7.87335C16.8567 7.89002 16.7597 7.88421 16.6318 7.73337C16.7191 7.94542 16.8268 8.12784 16.651 8.72321C16.4662 9.231 16.6192 9.55666 16.7855 9.86301C16.5521 9.82297 16.3614 9.70278 16.2185 9.49307C16.2469 9.7724 16.2149 10.0039 16.0263 10.4429C15.9169 10.7621 15.9016 11.1441 16.0456 11.6327C15.7701 11.3394 15.747 11.0461 15.7765 10.7529C15.5728 11.1752 15.404 11.6542 14.9211 11.6227C14.2685 11.7021 14.2339 12.1015 14.6424 12.5725C14.0484 12.0991 13.9544 11.5928 14.5752 11.0628C14.9249 10.6719 15.1275 10.2857 15.2191 9.903C14.9876 10.1693 14.8534 10.5143 14.3157 10.5329C13.9661 10.5575 13.7885 10.6776 13.7102 10.8528C13.6538 10.9867 13.6075 11.1268 13.3193 11.1224C13.0447 11.1182 12.9479 11.5075 12.9991 11.8327C12.7994 11.5838 12.7616 10.9231 13.2778 10.7029C13.2183 10.4114 13.2044 10.0823 13.7102 9.933" stroke="black" stroke-width="0.2"/>
<path d="M15.5527 18.8444C15.5473 18.8353 15.5287 18.7512 15.5112 18.6575C15.4161 18.1473 15.2429 17.7451 15.0225 17.5228C14.8125 17.3111 14.6365 17.2599 14.117 17.2593L13.7383 17.2484L13.821 16.9984C13.8725 16.8431 13.9026 17.0165 13.9991 17.0688C14.0957 17.1212 14.2332 17.1293 14.3107 17.0871C14.3373 17.0726 14.4013 17.0201 14.4528 16.9705C14.5883 16.84 14.7639 16.7242 14.8607 16.7016C15.0147 16.6656 15.1552 16.7533 15.2852 17.0908C15.3279 17.2015 15.5015 17.2865 15.611 17.4003L15.8255 17.4642L15.687 17.6355C15.5846 17.7622 15.5613 17.9476 15.5287 18.1073C15.49 18.2975 15.4919 18.4236 15.5369 18.6633C15.5723 18.8516 15.5749 18.8817 15.5527 18.8444ZM15.8762 17.4161C15.7969 17.2644 15.7886 16.9888 15.8564 16.6627L15.8849 16.5257L15.8066 16.4155C15.7351 16.3147 15.6014 16.1853 15.4821 16.1013L15.4349 16.068L15.5005 16.058C15.6809 16.0305 15.8833 16.161 15.997 16.3783L16.0525 16.4844L16.0142 16.6003C15.9614 16.76 15.933 16.9863 15.9117 17.2785C15.9013 17.421 15.8939 17.4498 15.8762 17.4161ZM14.1818 16.8585C14.1084 16.7736 13.9081 16.4502 13.9207 16.437C13.9248 16.4328 13.9917 16.4269 14.0693 16.424L14.2103 16.4186L14.3009 16.5446C14.4018 16.685 14.4215 16.7404 14.4007 16.8263C14.3675 16.9643 14.2838 16.9766 14.1818 16.8585ZM13.8151 10.965C13.7981 10.9578 13.7631 10.9438 13.7372 10.9339C13.6978 10.9187 13.6938 10.9089 13.7122 10.873C13.7574 10.7851 13.9069 10.6591 14.0087 10.6231C14.1201 10.5837 14.4207 10.5771 14.5939 10.6103L14.685 10.6277L14.5426 10.737C14.2998 10.9232 14.1989 10.9681 14.0101 10.9735C13.9198 10.976 13.832 10.9723 13.8151 10.965ZM15.9604 9.29743C15.9537 9.25338 15.944 9.18777 15.9387 9.15163C15.9217 9.03481 15.884 9.0032 15.7675 9.00823L15.6637 9.01271L15.8088 8.86939C15.9815 8.69881 16.0722 8.6381 16.1238 8.6587C16.1556 8.6714 16.1592 8.68984 16.1483 8.78592C16.1363 8.89283 15.9993 9.37752 15.9812 9.37752C15.9764 9.37752 15.9671 9.34148 15.9604 9.29743ZM12.1186 9.09986C12.1255 8.97651 12.1372 8.70048 12.1446 8.48645C12.1582 8.094 12.1775 8.013 12.203 8.24152C12.2182 8.3778 12.2539 8.46811 12.2545 8.37166C12.2549 8.285 12.3267 8.08909 12.4037 7.96417C12.5292 7.76069 12.7221 7.61665 12.9451 7.55983C13.0002 7.54582 13.0467 7.53337 13.0486 7.53217C13.0504 7.53097 13.1001 7.25125 13.159 6.91057C13.2179 6.5699 13.2724 6.28393 13.2799 6.27508C13.2921 6.26088 13.447 7.20265 13.4459 7.28435C13.4459 7.30198 13.361 7.4029 13.2577 7.50862C12.9759 7.79707 12.7809 8.03656 12.6049 8.31053C12.4395 8.56786 12.2443 8.96273 12.1829 9.16394C12.1223 9.3626 12.105 9.34534 12.1186 9.09986ZM16.0163 7.43921C16.1299 7.20967 16.1316 7.05161 16.0232 6.82338C15.9373 6.64259 15.9358 6.5932 16.016 6.58354C16.0618 6.57802 16.0808 6.59264 16.1273 6.66897C16.1991 6.78702 16.2777 7.01764 16.2782 7.11208C16.2789 7.22544 16.2083 7.35504 16.1168 7.40858C16.0338 7.45708 16.0028 7.46655 16.0163 7.43921ZM12.6951 6.65427C12.7722 6.44546 12.761 6.32553 12.6332 5.99109C12.4439 5.49553 12.4928 5.21063 12.8067 4.98082C12.9854 4.84994 13.0222 4.80092 13.0083 4.71189L12.9966 4.63672L13.0468 4.67094C13.1028 4.70913 13.1276 4.78124 13.1074 4.84736C13.1001 4.87141 13.0278 4.94701 12.9468 5.01537C12.754 5.17803 12.68 5.30188 12.6691 5.48001C12.6616 5.6019 12.6686 5.63288 12.7443 5.80348C12.9114 6.18094 12.9283 6.3015 12.8398 6.48626C12.7863 6.59792 12.6631 6.74104 12.6951 6.65427Z" fill="black" fill-opacity="0.216981"/>
<path d="M17.8187 21.5136C17.7895 21.522 17.762 21.5193 17.7429 21.5061C17.7368 21.5018 17.7266 21.4893 17.7236 21.4824C17.7106 21.4522 17.7276 21.4167 17.7623 21.4012L17.7661 21.3995L17.7723 21.4081C17.777 21.4148 17.7782 21.4169 17.7772 21.4172C17.7647 21.4224 17.7638 21.4229 17.7574 21.4283C17.7516 21.4331 17.7506 21.4343 17.7484 21.4384C17.7445 21.4458 17.7436 21.4546 17.746 21.463C17.7476 21.4687 17.7549 21.4789 17.7602 21.4827C17.775 21.4936 17.7993 21.4961 17.8197 21.4889C17.8231 21.4877 17.826 21.4868 17.8261 21.487C17.8265 21.4874 17.8273 21.5108 17.8271 21.511C17.8267 21.5111 17.8232 21.5122 17.8188 21.5135L17.8187 21.5136ZM17.6003 21.6969C17.5936 21.7003 17.5881 21.703 17.588 21.703C17.588 21.7031 17.5872 21.7 17.5865 21.6962C17.5849 21.6885 17.5794 21.6676 17.5785 21.6663C17.5781 21.6658 17.5773 21.6662 17.5758 21.6677L17.5737 21.6699L17.5676 21.6613L17.5616 21.6528L17.567 21.6488L17.5725 21.6448L17.5626 21.6103L17.5527 21.5759L17.5664 21.5644L17.5801 21.5528L17.5831 21.555C17.6408 21.5976 17.6617 21.6118 17.678 21.6192C17.6817 21.6209 17.6831 21.622 17.6827 21.6227C17.6817 21.6245 17.6655 21.6464 17.6651 21.6464C17.6647 21.6464 17.6617 21.6436 17.6578 21.6402C17.6539 21.6367 17.6469 21.6313 17.6422 21.628C17.6375 21.6247 17.6331 21.6215 17.6324 21.621L17.631 21.62L17.615 21.6338L17.5989 21.6476L17.6032 21.6618C17.6056 21.6696 17.6089 21.6791 17.6105 21.683C17.6121 21.687 17.6133 21.6903 17.613 21.6905C17.6126 21.6907 17.607 21.6936 17.6003 21.6969ZM17.6147 21.6078C17.6143 21.6075 17.6061 21.6017 17.5967 21.5949C17.5872 21.588 17.5793 21.5826 17.579 21.5828C17.5786 21.583 17.5816 21.5927 17.5853 21.6044C17.589 21.6162 17.5921 21.6262 17.5922 21.6268C17.5922 21.6275 17.595 21.6255 17.604 21.618C17.613 21.6104 17.6154 21.6081 17.6147 21.6078ZM17.7461 21.5712C17.7309 21.5638 17.7055 21.5554 17.6905 21.5527C17.6768 21.5503 17.6763 21.5483 17.6966 21.5761L17.7144 21.6005L17.7033 21.6099L17.6922 21.6192L17.6563 21.5687L17.6204 21.5182L17.6416 21.5008C17.6645 21.482 17.6687 21.4792 17.678 21.4761C17.6862 21.4733 17.6939 21.4744 17.7008 21.4792C17.7054 21.4824 17.7127 21.4931 17.7144 21.4991C17.7164 21.5062 17.7166 21.5173 17.7148 21.5259L17.7133 21.5335L17.7296 21.5388C17.7385 21.5417 17.7501 21.545 17.7552 21.5461C17.7604 21.5472 17.7646 21.5483 17.7645 21.5485C17.7627 21.5526 17.7525 21.573 17.7521 21.5733C17.7516 21.5736 17.7491 21.5727 17.7461 21.5712ZM17.6804 21.5354C17.682 21.5309 17.6836 21.5269 17.684 21.5266C17.6844 21.5263 17.6861 21.5265 17.6877 21.5271C17.6894 21.5277 17.691 21.5281 17.6912 21.5278C17.6919 21.5273 17.6924 21.5182 17.692 21.5139C17.6916 21.5097 17.6861 21.5015 17.6831 21.5007C17.6771 21.4989 17.6711 21.5015 17.6605 21.5105L17.6537 21.5162L17.6648 21.5318C17.6754 21.5466 17.6761 21.5473 17.6767 21.5455C17.6772 21.5444 17.6788 21.5398 17.6804 21.5354ZM17.8517 21.4827C17.8517 21.4818 17.8446 21.4713 17.8366 21.4594L17.8218 21.4378L17.8189 21.4408L17.816 21.4439L17.8097 21.4349L17.8033 21.426L17.8067 21.4237L17.8102 21.4214L17.7968 21.4037C17.7895 21.394 17.7829 21.3855 17.7822 21.3848L17.781 21.3835L17.7926 21.3735L17.8041 21.3635L17.8073 21.3694C17.8091 21.3726 17.8152 21.3817 17.8208 21.3896L17.8311 21.404L17.8471 21.3905L17.8631 21.377L17.8531 21.3628C17.8476 21.3551 17.841 21.3464 17.8385 21.3436L17.8339 21.3385L17.8458 21.3284L17.8577 21.3184L17.8586 21.3206C17.8591 21.3219 17.8705 21.3393 17.884 21.3593C17.9029 21.3873 17.9106 21.3982 17.9174 21.4062C17.9222 21.4119 17.9269 21.4172 17.9278 21.4179L17.9295 21.4192L17.9175 21.4293L17.9055 21.4394L17.9044 21.4369C17.9039 21.4355 17.897 21.4249 17.8892 21.4133L17.875 21.3923L17.8584 21.4063L17.8418 21.4203L17.8569 21.4405C17.8652 21.4516 17.8729 21.4615 17.874 21.4625L17.876 21.4643L17.864 21.4744L17.852 21.4845L17.8516 21.4828L17.8517 21.4827Z" fill="black" fill-opacity="0.188679"/>
<path d="M16.0022 24.1777C15.9683 24.1622 15.923 24.1289 15.9015 24.1038C15.8518 24.0458 15.8513 24.0459 15.6942 24.1222C15.528 24.2031 15.4408 24.2052 15.3685 24.13C15.3154 24.0748 15.3037 24.0261 15.3127 23.898C15.3188 23.8103 15.3937 23.6524 15.4292 23.6524C15.4668 23.6524 15.466 23.6594 15.4163 23.7607C15.3624 23.8705 15.3582 24.0236 15.4074 24.0802C15.4585 24.139 15.5304 24.1328 15.6802 24.0567C15.8206 23.9855 15.9135 23.9856 15.9502 24.057C15.961 24.0779 15.9979 24.1071 16.0322 24.1219C16.1073 24.1543 16.1561 24.1243 16.1561 24.0459C16.1561 23.903 16.2627 23.8232 16.4535 23.8232C16.618 23.8232 16.5955 23.8731 16.4247 23.8874C16.2791 23.8996 16.2177 23.951 16.2177 24.0605C16.2177 24.1297 16.1544 24.2081 16.0997 24.2069C16.0799 24.2064 16.036 24.1933 16.0022 24.1777ZM17.1671 22.1524C17.1717 22.1381 17.2054 22.1199 17.242 22.1121C17.3488 22.0894 17.4047 22.016 17.463 21.8215C17.4922 21.7238 17.5236 21.6391 17.5328 21.6332C17.5638 21.6132 17.5712 21.6592 17.5503 21.7427C17.4796 22.0257 17.3678 22.1786 17.2315 22.1786C17.1832 22.1786 17.1615 22.1698 17.1671 22.1524ZM17.8744 21.3319C17.8471 21.3036 17.8859 21.2815 17.9632 21.2815C18.0626 21.2815 18.1329 21.2103 18.1805 21.0613C18.2231 20.9279 18.3232 20.8253 18.4555 20.7796C18.5137 20.7595 18.5922 20.7107 18.6305 20.6709C18.7609 20.5352 18.748 20.3611 18.5878 20.0932C18.4873 19.9254 18.4836 19.9145 18.5252 19.9145C18.5625 19.9145 18.6733 20.0953 18.7377 20.2611C18.8446 20.5364 18.74 20.7538 18.4538 20.8516C18.3546 20.8854 18.2867 20.9654 18.2138 21.1342C18.1803 21.2118 18.1311 21.2911 18.1046 21.3104C18.0576 21.3447 17.9007 21.3593 17.8744 21.3319ZM17.2186 19.8836C17.1158 19.7658 17.1045 19.7437 17.1475 19.7437C17.1808 19.7437 17.3674 19.9391 17.3674 19.974C17.3674 20.0256 17.3142 19.9933 17.2186 19.8836ZM12.4402 19.8771C12.4007 19.8566 12.3712 19.8302 12.3747 19.8184C12.3824 19.7925 12.4091 19.7955 12.4974 19.8323C12.5594 19.8581 12.5729 19.8557 12.6647 19.802C12.7755 19.7372 12.8115 19.7328 12.9444 19.7676C13.0015 19.7825 13.0356 19.8034 13.0356 19.8235C13.0356 19.8474 13.0214 19.852 12.9791 19.8419C12.8054 19.8 12.7749 19.8018 12.6945 19.8587C12.602 19.924 12.5392 19.9286 12.4402 19.8771ZM14.2828 19.8783C14.2491 19.8728 14.2263 19.8555 14.2263 19.8356C14.2263 19.809 14.242 19.8049 14.3041 19.8152C14.4251 19.8354 14.5148 19.7978 14.6261 19.6802C14.7369 19.5631 14.7874 19.5403 14.9833 19.5185C15.0889 19.5067 15.1123 19.5095 15.1049 19.533C15.0995 19.55 15.0405 19.5718 14.9638 19.5853C14.7715 19.6191 14.7479 19.6305 14.6766 19.7241C14.641 19.7708 14.5875 19.822 14.5577 19.8379C14.4935 19.8721 14.3619 19.8914 14.2828 19.8783ZM8.06161 18.6597C7.97216 18.5666 7.95648 18.5586 7.87198 18.562C7.77237 18.566 7.74047 18.5208 7.82605 18.497C7.90418 18.4752 7.93567 18.4816 8.0107 18.5346L8.08302 18.5856L8.09233 18.4848C8.10281 18.3714 8.16539 18.2237 8.20898 18.2095C8.24035 18.1993 8.23802 18.2125 8.17943 18.3767C8.15432 18.4471 8.14814 18.5114 8.15634 18.617C8.1625 18.6963 8.16565 18.7612 8.16334 18.7612C8.161 18.7612 8.11524 18.7155 8.06161 18.6597ZM14.6882 18.3056C14.6657 18.2694 14.6056 18.2068 14.5548 18.1664C14.486 18.1118 14.4755 18.097 14.5137 18.1085C14.5905 18.1316 14.6631 18.1915 14.7054 18.2666C14.7556 18.3557 14.7406 18.3895 14.6882 18.3056ZM14.2776 18.3126C14.2438 18.2893 14.1999 18.2701 14.1801 18.2701C14.1604 18.2701 14.1442 18.2603 14.1442 18.2486C14.1442 18.2188 14.23 18.223 14.2674 18.2546C14.3021 18.2839 14.3586 18.3554 14.3469 18.3552C14.3427 18.3552 14.3115 18.336 14.2776 18.3126ZM18.6403 18.2418C18.6403 18.2139 18.7048 18.0927 18.7594 18.0179C18.8506 17.8931 18.9716 17.8362 19.1614 17.829C19.3048 17.8235 19.318 17.8257 19.2562 17.8453C18.9915 17.929 18.8852 17.9926 18.732 18.1589C18.6815 18.2137 18.6403 18.251 18.6403 18.2418ZM14.7701 18.1549C14.7343 18.0973 14.6675 18.0427 14.5012 17.9351C14.4756 17.9186 14.4952 17.9199 14.5585 17.939C14.7205 17.9878 14.8327 18.0933 14.8178 18.1829C14.8126 18.214 14.8035 18.2086 14.7701 18.1549ZM14.2366 18.1631C14.2027 18.1398 14.1588 18.1206 14.1391 18.1205C14.1193 18.1205 14.1031 18.1108 14.1031 18.099C14.1031 18.0536 14.2009 18.0808 14.2571 18.1418C14.3261 18.2166 14.3213 18.2215 14.2366 18.1631ZM8.48108 18.1091C8.41445 18.021 8.40775 17.9094 8.45782 17.7216C8.5046 17.5461 8.52328 17.5094 8.55531 17.53C8.56671 17.5373 8.55431 17.6154 8.52523 17.7193C8.47124 17.9122 8.47455 17.9976 8.53934 18.0833C8.57619 18.1321 8.57549 18.1631 8.53753 18.1631C8.52894 18.1631 8.50355 18.1388 8.48108 18.1091ZM14.967 18.0762C14.9641 18.0154 14.8214 17.8663 14.6818 17.7782C14.54 17.6887 14.5737 17.6778 14.7498 17.7563C14.8849 17.8165 15.0121 17.9971 14.9793 18.0821C14.9719 18.1014 14.9681 18.0996 14.967 18.0762ZM14.1463 17.9996C14.1079 17.9721 14.0571 17.9492 14.0334 17.9489C13.9939 17.9483 13.9933 17.9464 14.0266 17.9262C14.0737 17.8977 14.126 17.916 14.1855 17.9818C14.2496 18.0529 14.2318 18.0609 14.1463 17.9996ZM15.139 17.9047C15.0876 17.7857 14.9137 17.6047 14.7697 17.5201C14.6444 17.4465 14.6305 17.4292 14.7139 17.4506C14.9346 17.5071 15.1134 17.6605 15.1623 17.8354C15.2038 17.9842 15.1906 18.0237 15.139 17.9047ZM15.3681 17.9132C15.3297 17.7436 15.1168 17.4858 14.901 17.3477C14.7759 17.2676 14.794 17.2472 14.9391 17.3045C15.0897 17.3641 15.2284 17.4718 15.2949 17.5809C15.3566 17.6821 15.4073 17.8688 15.3924 17.9398C15.3857 17.9717 15.38 17.9655 15.3681 17.9132ZM14.0929 17.8214C14.059 17.798 14.0151 17.7789 13.9953 17.7788C13.9756 17.7788 13.9594 17.769 13.9594 17.7573C13.9594 17.7119 14.0572 17.739 14.1134 17.8C14.1823 17.8749 14.1776 17.8798 14.0929 17.8214ZM18.8772 17.6952C18.8488 17.6836 18.8735 17.6749 18.9623 17.6653C19.1267 17.6474 19.2848 17.5842 19.4303 17.4781C19.4952 17.4308 19.5522 17.396 19.5568 17.4008C19.5776 17.4224 19.3707 17.6287 19.2874 17.6694C19.1921 17.716 18.9637 17.7304 18.8772 17.6952ZM19.1781 17.3091C19.0703 17.2825 19.0814 17.2732 19.2372 17.2596C19.3937 17.2459 19.5854 17.167 19.7185 17.0613C19.8344 16.9694 19.8253 17.0184 19.703 17.1457C19.5492 17.3057 19.3792 17.3586 19.1781 17.3091ZM19.2254 17.0088C19.1127 16.9958 19.1049 17.0003 19.3383 16.9441C19.4508 16.917 19.5615 16.8514 19.7171 16.7195C19.8282 16.6253 19.8331 16.6233 19.8029 16.684C19.685 16.9212 19.4777 17.0378 19.2254 17.0088ZM19.2789 16.7245C19.3422 16.6974 19.4213 16.655 19.4547 16.6303C19.5339 16.5716 19.669 16.4185 19.7185 16.3312C19.7724 16.2364 19.7941 16.2445 19.7595 16.3465C19.7187 16.4669 19.6933 16.5115 19.6122 16.6049C19.5316 16.6976 19.3615 16.7751 19.24 16.7743L19.1638 16.7738L19.2789 16.7245ZM19.2356 16.4893C19.2356 16.4825 19.2639 16.4617 19.2985 16.4431C19.4416 16.366 19.6118 16.1574 19.6859 15.968C19.7233 15.8724 19.7508 15.8605 19.7364 15.9461C19.6964 16.1847 19.5923 16.3521 19.4358 16.4299C19.3393 16.4778 19.2356 16.5086 19.2356 16.4893ZM14.5651 16.4197C14.4747 16.4054 14.2091 16.3867 13.9748 16.378C13.6391 16.3657 13.5488 16.3563 13.5488 16.3336C13.5488 16.3114 13.5965 16.305 13.7592 16.3052C14.1707 16.3059 14.7147 16.3573 14.7552 16.3995C14.7893 16.435 14.7127 16.4431 14.5651 16.4197ZM19.2025 16.1699C19.3971 16.0428 19.5212 15.8949 19.6184 15.6741C19.6467 15.6099 19.6738 15.5573 19.6788 15.5573C19.6931 15.5573 19.6632 15.7311 19.6337 15.8193C19.5762 15.9913 19.4302 16.1246 19.2459 16.1734C19.1808 16.1907 19.1718 16.19 19.2025 16.1699ZM15.1601 16.039L15.0933 15.9653L15.0139 16.008C14.9213 16.0579 14.8362 16.0488 14.7677 15.9819C14.7249 15.9401 14.7189 15.9395 14.6749 15.9715C14.6112 16.018 14.5483 16.0147 14.503 15.9626C14.4743 15.9296 14.4711 15.9135 14.4895 15.8944C14.5079 15.8752 14.52 15.8785 14.5409 15.9082C14.5844 15.97 14.6474 15.9329 14.6923 15.8191L14.7318 15.719L14.7593 15.8214C14.8071 15.999 14.9462 16.0332 15.0581 15.8948C15.0871 15.859 15.1139 15.8332 15.1177 15.8377C15.1215 15.8421 15.1443 15.8864 15.1684 15.9361C15.2263 16.0555 15.2836 16.0702 15.4085 15.9975C15.4977 15.9457 15.5402 15.9413 15.5402 15.9839C15.5402 16.0116 15.3336 16.1127 15.2769 16.1127C15.2465 16.1127 15.2007 16.0838 15.1601 16.039ZM13.5796 15.981C13.6022 15.9681 13.6519 15.9276 13.69 15.8909C13.7544 15.829 13.7575 15.8281 13.7335 15.8777C13.6902 15.9675 13.6476 16.0059 13.5918 16.0052C13.5418 16.0046 13.5411 16.0031 13.5796 15.981ZM12.3375 15.9632C12.3375 15.9514 12.3486 15.9418 12.3622 15.9418C12.3758 15.9418 12.4185 15.9106 12.457 15.8724L12.5271 15.803L12.4937 15.8717C12.4511 15.9595 12.3375 16.026 12.3375 15.9632ZM13.2161 15.9489C13.2532 15.9298 13.3017 15.8903 13.3238 15.8611C13.346 15.8318 13.364 15.818 13.364 15.8305C13.364 15.8821 13.2567 15.9845 13.2031 15.984C13.1491 15.9835 13.1493 15.9831 13.2161 15.9489ZM21.5493 15.9097C21.6086 15.8788 21.7036 15.8001 21.7631 15.7325C21.8596 15.6228 21.8688 15.617 21.8553 15.6735C21.8209 15.8173 21.6945 15.9233 21.5238 15.9517L21.4426 15.9652L21.5493 15.9097ZM12.1117 15.8991C12.1117 15.8873 12.1228 15.8777 12.1364 15.8777C12.15 15.8777 12.1926 15.8465 12.2312 15.8083L12.3013 15.7389L12.2679 15.8077C12.2252 15.8955 12.1117 15.9619 12.1117 15.8991ZM14.0319 15.8788C14.0253 15.8676 14.039 15.8478 14.0624 15.8348C14.0859 15.8218 14.1331 15.7636 14.1674 15.7056C14.2017 15.6475 14.2336 15.6 14.2383 15.6C14.2559 15.6 14.1653 15.8203 14.1318 15.8588C14.0938 15.9025 14.0511 15.911 14.0319 15.8788ZM14.2775 15.8775C14.2692 15.8635 14.2811 15.8486 14.3063 15.8418C14.3299 15.8353 14.3826 15.7759 14.4234 15.7097C14.483 15.613 14.4948 15.602 14.4836 15.6535C14.4474 15.8196 14.3233 15.9546 14.2775 15.8775ZM11.8243 15.8373C11.8243 15.8268 11.8482 15.812 11.8774 15.8044C11.9066 15.7968 11.9776 15.7453 12.0353 15.69L12.1401 15.5894L12.0925 15.6748C12.0254 15.7953 11.9555 15.8564 11.8847 15.8564C11.8515 15.8564 11.8243 15.8478 11.8243 15.8373ZM21.4129 15.7534C21.5418 15.6683 21.6785 15.5022 21.7563 15.3363C21.7929 15.2582 21.826 15.1942 21.8298 15.1942C21.8337 15.1942 21.8294 15.2431 21.8203 15.3029C21.7854 15.533 21.6489 15.7125 21.4571 15.7804C21.3213 15.8286 21.3097 15.8215 21.4129 15.7534ZM11.6214 15.7729C11.6005 15.7591 11.6098 15.7504 11.6568 15.7396C11.6919 15.7316 11.7683 15.6804 11.8266 15.6259C11.9242 15.5345 11.93 15.5318 11.9003 15.5917C11.8211 15.751 11.7038 15.8272 11.6214 15.7729ZM11.335 15.6894C11.3155 15.6757 11.3345 15.663 11.4007 15.6457C11.4537 15.6318 11.5516 15.5757 11.6282 15.5154C11.7022 15.4572 11.7627 15.4148 11.7627 15.4213C11.7627 15.4466 11.6506 15.5921 11.594 15.6402C11.5304 15.6943 11.3819 15.7225 11.335 15.6894ZM11.0958 15.5793C11.0891 15.5679 11.1093 15.5522 11.1408 15.5443C11.2313 15.5217 11.3135 15.4738 11.42 15.3817C11.4743 15.3348 11.5223 15.3001 11.5266 15.3045C11.5461 15.3249 11.3679 15.5335 11.3041 15.5649C11.2253 15.6038 11.1149 15.6115 11.0958 15.5793ZM21.3771 15.5413C21.3832 15.5208 21.414 15.4415 21.4455 15.3651C21.5249 15.1728 21.5375 14.8961 21.4748 14.7221C21.4182 14.5651 21.328 14.4258 21.1706 14.252C21.1 14.1741 21.0423 14.1044 21.0423 14.097C21.0423 14.0323 21.2201 14.1961 21.3675 14.3965C21.6064 14.7216 21.64 15.1089 21.461 15.4763C21.4135 15.5739 21.3536 15.6202 21.3771 15.5413ZM16.0766 15.39C16.1994 15.2733 16.3266 15.0518 16.3517 14.911C16.3596 14.8668 16.3758 14.8244 16.3876 14.8169C16.4193 14.7965 16.3911 15.0662 16.351 15.1659C16.2977 15.299 16.1464 15.4409 16.0127 15.4832C15.9746 15.4952 15.9908 15.4716 16.0766 15.39ZM16.3906 15.3984C16.4626 15.2991 16.5029 15.189 16.5046 15.0874C16.5063 14.9797 16.5455 15.0507 16.5458 15.1622C16.5462 15.2647 16.4928 15.3625 16.3994 15.4309L16.3306 15.4813L16.3906 15.3984ZM10.9261 15.4355C10.8669 15.4236 10.8658 15.3865 10.9248 15.3865C10.9929 15.3865 11.1323 15.309 11.2374 15.2128C11.2892 15.1653 11.3316 15.1356 11.3316 15.1466C11.3316 15.1973 11.1755 15.373 11.098 15.4096C11.0114 15.4505 11.0056 15.4514 10.9261 15.4355ZM15.5844 15.3531C15.7316 15.143 15.8062 14.918 15.8068 14.6827C15.8073 14.4953 15.854 14.5854 15.8641 14.7933C15.871 14.9362 15.8645 14.9927 15.8295 15.0891C15.7804 15.2244 15.6798 15.3563 15.579 15.4172L15.5105 15.4586L15.5844 15.3531ZM15.8459 15.3752C15.9647 15.2345 16.0535 14.9826 16.0535 14.7864C16.0535 14.7134 16.0587 14.6999 16.0789 14.7208C16.0948 14.7375 16.1042 14.812 16.1043 14.9227C16.1043 15.1334 16.064 15.2288 15.918 15.3625C15.8003 15.4703 15.7596 15.4775 15.8459 15.3752ZM15.2528 15.3126C15.2528 15.3065 15.2864 15.2557 15.3275 15.1998C15.4491 15.0343 15.4988 14.8803 15.5324 14.5641C15.545 14.4454 15.5474 14.4407 15.5649 14.5001C15.5752 14.5353 15.5849 14.6364 15.5863 14.7246C15.5892 14.9153 15.5297 15.0756 15.4095 15.2006C15.3379 15.2752 15.2528 15.336 15.2528 15.3126ZM15.0366 15.0979C15.1435 14.9355 15.2042 14.7484 15.2241 14.5199C15.2438 14.294 15.2832 14.3668 15.2827 14.6282C15.2823 14.7795 15.2729 14.8422 15.2378 14.9223C15.1958 15.0182 15.0056 15.2369 14.9642 15.2369C14.9537 15.2369 14.9863 15.1744 15.0366 15.0979ZM9.4428 14.1026C9.27105 14.0742 9.2375 14.0635 9.2375 14.0374C9.2375 14.02 9.27893 14.0187 9.38634 14.0324C9.60071 14.0599 9.96375 14.0544 10.1306 14.021C10.3765 13.9718 10.7245 13.8231 10.9687 13.6627L11.0499 13.6093L11.2037 13.7693C11.3011 13.8707 11.3517 13.9387 11.342 13.9552C11.3315 13.9728 11.2813 13.9344 11.1857 13.8357L11.0448 13.6903L10.9675 13.7381C10.4593 14.0523 9.91917 14.1814 9.4428 14.1026ZM21.952 13.8349C22.0252 13.6841 22.0542 13.5096 22.0397 13.3069L22.0272 13.1331L22.0701 13.2395C22.1581 13.4582 22.1433 13.6344 22.0212 13.8187C21.93 13.9564 21.8883 13.9661 21.952 13.8349ZM7.57456 13.8266C7.57456 13.7542 7.62992 13.64 7.67798 13.6132C7.73119 13.5836 7.82 13.5981 7.89375 13.6483C7.96927 13.6998 7.92594 13.7282 7.83332 13.688C7.71308 13.6357 7.68263 13.6572 7.62845 13.8326C7.61258 13.884 7.57456 13.8797 7.57456 13.8266ZM21.6876 13.7525C21.7681 13.5451 21.7809 13.3524 21.7293 13.1247C21.7123 13.0495 21.703 12.9832 21.7087 12.9773C21.7144 12.9714 21.7479 13.0307 21.7832 13.109C21.8689 13.2996 21.8723 13.4547 21.7945 13.6203C21.7396 13.737 21.6512 13.8464 21.6876 13.7525ZM21.0967 13.5176C21.075 13.366 20.9754 13.1646 20.8538 13.0261C20.7964 12.9608 20.7535 12.9031 20.7584 12.898C20.7779 12.8777 20.9852 13.0438 21.0417 13.1249C21.1164 13.2323 21.1563 13.4172 21.1307 13.5372L21.112 13.6244L21.0967 13.5176ZM21.3676 13.4001C21.3573 13.2046 21.3022 13.0445 21.1947 12.8979C21.1184 12.7938 21.1447 12.7826 21.2446 12.8765C21.3687 12.9932 21.4326 13.1425 21.4314 13.3135C21.4309 13.3905 21.4185 13.4823 21.4038 13.5176C21.3787 13.578 21.3766 13.5715 21.3676 13.4001ZM20.0055 12.4731C19.8302 12.4154 19.7274 12.3301 19.6556 12.1826C19.6219 12.1134 19.581 11.969 19.5951 11.969C19.5985 11.969 19.625 12.0112 19.654 12.0627C19.7248 12.1883 19.8792 12.3291 20.0499 12.4239C20.1972 12.5056 20.1759 12.5292 20.0055 12.4731ZM19.0835 12.2345C18.9631 12.1885 18.8724 12.1071 18.8044 11.9837C18.7708 11.9228 18.7432 11.8667 18.7431 11.8591C18.7431 11.8515 18.7972 11.9006 18.8636 11.9682C18.9525 12.0587 19.0251 12.1087 19.1393 12.1582C19.2246 12.1951 19.3112 12.2255 19.3317 12.2257C19.3523 12.2259 19.3829 12.2353 19.3999 12.2467C19.4498 12.2802 19.1758 12.2696 19.0835 12.2345ZM21.381 12.0429C21.2826 11.9585 21.1116 11.9028 20.9088 11.8889C20.7249 11.8764 20.7244 11.8762 20.7955 11.8459C20.8426 11.8258 20.9199 11.818 21.0229 11.8228C21.1534 11.829 21.1951 11.8407 21.2777 11.8943C21.3703 11.9543 21.5004 12.0981 21.4607 12.0964C21.4507 12.096 21.4149 12.0719 21.381 12.0429ZM5.94832 11.8023C5.97414 11.7817 6.01335 11.7362 6.03544 11.7014C6.08225 11.6275 6.08977 11.6655 6.04583 11.7539C6.01693 11.8121 5.97604 11.8414 5.92534 11.8404C5.91215 11.8401 5.92249 11.823 5.94832 11.8023ZM5.74568 11.6967C5.76983 11.6762 5.81245 11.6305 5.84039 11.5953L5.89119 11.5312L5.86918 11.5952C5.83978 11.6808 5.79092 11.7341 5.74193 11.7341C5.70351 11.7341 5.70366 11.7325 5.74568 11.6967ZM5.53771 11.6742C5.56354 11.6535 5.60275 11.6081 5.62483 11.5732C5.67165 11.4993 5.67918 11.5374 5.63523 11.6258C5.60633 11.6839 5.56544 11.7133 5.51474 11.7123C5.50155 11.712 5.51189 11.6949 5.53771 11.6742ZM5.06819 11.654C5.09233 11.6334 5.13495 11.5878 5.1629 11.5525L5.2137 11.4885L5.19169 11.5525C5.16229 11.6381 5.11343 11.6914 5.06443 11.6914C5.02601 11.6914 5.02618 11.6898 5.06819 11.654ZM5.25858 11.669C5.27767 11.6574 5.32227 11.6121 5.35768 11.5682L5.42206 11.4885L5.38889 11.5731C5.35234 11.6665 5.32652 11.6909 5.26493 11.6904C5.22813 11.6901 5.22748 11.6879 5.25858 11.669ZM18.8408 11.2492C18.7087 11.2034 18.5922 11.0942 18.5266 10.9548C18.4691 10.8326 18.4653 10.7351 18.5224 10.8477C18.5962 10.9932 18.7924 11.1463 19.0509 11.2601C19.0986 11.2811 19.0965 11.2827 19.0201 11.2828C18.9749 11.2828 18.8942 11.2677 18.8408 11.2492ZM6.1721 10.6096C6.14285 10.5792 6.16243 10.5624 6.32736 10.4766C6.51462 10.3791 6.8682 10.2717 6.8886 10.3061C6.90738 10.3377 6.89741 10.3426 6.70317 10.3982C6.56288 10.4384 6.341 10.5347 6.19776 10.6176C6.19141 10.6213 6.17986 10.6176 6.1721 10.6096ZM18.1872 10.4222C18.0945 10.2041 18.1175 9.98614 18.2518 9.8097C18.3314 9.70517 18.3496 9.71419 18.2928 9.83C18.2254 9.96746 18.1977 10.1839 18.2253 10.3573C18.2382 10.438 18.2445 10.5083 18.2394 10.5136C18.2343 10.5189 18.2108 10.4778 18.1872 10.4222ZM17.8945 10.1986C17.8477 9.95513 17.9284 9.72423 18.1087 9.58582C18.2054 9.51158 18.2235 9.52212 18.1496 9.60967C18.058 9.71825 17.9902 9.8687 17.9617 10.0267C17.9481 10.1023 17.9305 10.1881 17.9226 10.2173C17.9088 10.2682 17.9077 10.2675 17.8945 10.1986ZM12.8611 9.98364C12.7014 9.91493 12.6166 9.55905 12.6994 9.30526C12.7446 9.16673 12.8344 9.03514 12.9853 8.88647L13.1115 8.7621L13.0819 8.63016C13.0392 8.43977 13.055 8.12398 13.1141 7.9873C13.2137 7.75699 13.3803 7.60882 13.8039 7.37383C14.1355 7.18987 14.1857 7.11815 14.2692 6.70891C14.3298 6.41143 14.3764 6.29024 14.4858 6.14454C14.6647 5.90625 14.704 5.77106 14.6498 5.58008C14.6319 5.51693 14.5972 5.43161 14.5728 5.3905L14.5284 5.31574L14.4941 5.44553C14.4753 5.51691 14.4397 5.60924 14.4151 5.65071C14.3525 5.75607 14.1981 5.90086 14.0467 5.99626C13.8694 6.10792 13.8157 6.20563 13.8157 6.41671V6.57413L13.7253 6.48185C13.6167 6.37095 13.5368 6.2241 13.4889 6.04739L13.4535 5.91665L13.4082 6.01395C13.3044 6.23704 13.3061 6.51977 13.414 6.99485L13.464 7.21499L13.234 7.46146C12.9935 7.71911 12.7527 8.02085 12.607 8.24694C12.4873 8.43275 12.2944 8.81035 12.225 8.99481C12.193 9.07998 12.1596 9.14966 12.1507 9.14966C12.1091 9.14966 12.1187 9.09763 12.1938 8.91485C12.4055 8.39941 12.7173 7.93015 13.1777 7.43391L13.3991 7.19532L13.3494 6.98173C13.292 6.73479 13.2642 6.28221 13.2986 6.15319L13.3201 6.0722L13.183 6.19838C13.0396 6.33027 12.6839 6.61233 12.674 6.60199C12.6708 6.59871 12.6946 6.48129 12.7267 6.34106L12.7853 6.08611L12.7271 5.93391C12.6952 5.8502 12.6538 5.7057 12.6351 5.6128C12.577 5.32309 12.6268 5.13944 12.8038 4.99124C13.0507 4.7846 13.0954 4.70783 13.0312 4.6009C12.9939 4.53871 13.0332 4.51787 13.0784 4.57589C13.1645 4.68641 13.1073 4.81921 12.9021 4.98468C12.7464 5.1103 12.6927 5.19298 12.6759 5.33321C12.6575 5.48586 12.7284 5.84759 12.8004 5.96878C12.8077 5.98097 12.8401 5.93263 12.8725 5.86138C12.9514 5.68784 13.0917 5.54786 13.2989 5.43612C13.3929 5.38541 13.4723 5.34719 13.4753 5.35119C13.4783 5.35519 13.4911 5.4945 13.5036 5.66077C13.5282 5.98533 13.573 6.16568 13.6652 6.31056C13.7292 6.41116 13.7541 6.41649 13.7541 6.3296C13.7541 6.25393 13.8022 6.12515 13.8524 6.06652C13.8717 6.04394 13.9615 5.97561 14.0518 5.91468C14.3354 5.72334 14.4309 5.57233 14.4503 5.28448L14.4624 5.10371L14.552 5.247C14.6922 5.47115 14.747 5.63111 14.7313 5.77013C14.7158 5.90703 14.6827 5.98057 14.5657 6.13806C14.4224 6.33095 14.3948 6.40304 14.3185 6.78327C14.2778 6.98636 14.186 7.18211 14.0908 7.26906C14.0513 7.30521 13.9431 7.3742 13.8506 7.42236C13.4692 7.62079 13.2402 7.82805 13.1619 8.04568C13.109 8.19283 13.1028 8.45095 13.1474 8.64773L13.1764 8.77588L13.0069 8.95743C12.7455 9.23748 12.6829 9.42858 12.7581 9.71756C12.796 9.86323 12.8594 9.94023 12.9408 9.93961C13.0533 9.93876 13.0728 9.85797 12.9947 9.71607C12.9607 9.65426 12.9329 9.57265 12.9329 9.53473C12.9329 9.43479 13.0356 9.33597 13.187 9.29017C13.399 9.22605 13.5274 9.11231 13.668 8.86404C13.769 8.68576 13.8535 8.62718 14.0102 8.62673C14.1014 8.62647 14.1664 8.64067 14.2416 8.67727L14.3462 8.72817L14.439 8.64902C14.5315 8.5702 14.7017 8.37617 14.8082 8.22826C14.8616 8.15401 14.8705 8.15016 15.0062 8.14219C15.1219 8.13538 15.1583 8.12409 15.2033 8.08108C15.2739 8.01346 15.3408 7.85722 15.3861 7.65454C15.4057 7.56643 15.4281 7.46617 15.4358 7.43172C15.4534 7.35262 15.4992 7.33289 15.4992 7.40439C15.4992 7.4887 15.4056 7.84679 15.3489 7.97966C15.2658 8.17408 15.1822 8.28627 14.8827 8.60501C14.5704 8.93746 14.5238 9.00436 14.4313 9.25403C14.3496 9.47435 14.2271 9.66513 14.1002 9.76942C13.957 9.88726 13.6731 9.98993 13.697 9.91527C13.7014 9.90171 13.7414 9.87926 13.786 9.8654C14.0697 9.77716 14.2524 9.5712 14.3922 9.18226C14.4671 8.97374 14.5675 8.83475 14.8666 8.52551C15.0226 8.36431 15.1502 8.22494 15.1502 8.2158C15.1502 8.20667 15.0925 8.20233 15.0219 8.20617C14.8987 8.21287 14.8912 8.21655 14.8349 8.29819C14.7532 8.41664 14.5696 8.62015 14.4522 8.7224L14.3536 8.80831L14.2528 8.75561C13.9897 8.61814 13.8195 8.67782 13.6829 8.95545C13.5937 9.13666 13.3882 9.30472 13.1867 9.36116C13.0135 9.40969 12.9536 9.51341 13.0251 9.64092C13.1083 9.78942 13.1212 9.8368 13.0957 9.90081C13.0576 9.99661 12.9662 10.0289 12.8611 9.98364ZM13.2021 6.08832L13.4359 5.86751L13.4319 5.6693C13.4297 5.56029 13.423 5.46608 13.4171 5.45995C13.3949 5.43687 13.1827 5.5684 13.0886 5.66348C12.9643 5.7892 12.88 5.96334 12.8181 6.22205C12.7912 6.33444 12.7691 6.4336 12.7689 6.44239C12.7685 6.4725 12.9684 6.30912 13.2021 6.08832ZM10.4584 8.54627C10.4531 8.53159 10.4368 8.47632 10.4223 8.42346C10.3964 8.32943 10.3939 8.32722 10.3043 8.32176C10.1116 8.31001 9.93552 8.27084 9.93552 8.23973C9.93552 8.2157 9.95371 8.21276 10.0228 8.22564C10.1336 8.2463 10.422 8.24675 10.4916 8.22636C10.5207 8.21782 10.5798 8.18177 10.6227 8.14627C10.6656 8.11076 10.7184 8.08171 10.74 8.08171C10.8422 8.08171 10.9251 7.99197 10.9455 7.85921C10.9551 7.79646 11.0031 7.79133 11.0031 7.85305C11.0031 7.95595 10.9448 8.05774 10.8601 8.1027C10.8154 8.1264 10.7615 8.14578 10.7402 8.14578C10.7189 8.14578 10.6852 8.16447 10.6654 8.18731C10.6455 8.21015 10.59 8.24573 10.542 8.26639L10.4547 8.30395L10.4823 8.41176C10.5156 8.542 10.5169 8.57296 10.4892 8.57296C10.4775 8.57296 10.4637 8.56096 10.4584 8.54627ZM13.5899 8.54093C13.5899 8.53506 13.5908 8.52785 13.592 8.52491C13.5932 8.52198 13.5706 8.47347 13.5418 8.41712C13.4684 8.27353 13.4534 8.14546 13.4962 8.02878C13.5559 7.8663 13.7042 7.75669 14.0894 7.59038C14.4057 7.45383 14.5702 7.23004 14.6546 6.82154C14.7171 6.51944 14.8046 6.28757 14.8563 6.28757C14.8913 6.28757 14.8926 6.2814 14.8243 6.43947C14.7918 6.51452 14.7501 6.6432 14.7316 6.72543C14.6538 7.07088 14.6283 7.14925 14.5557 7.26608C14.4573 7.42435 14.3318 7.53698 14.1647 7.61682C14.0913 7.65189 13.9661 7.71179 13.8865 7.74994C13.5438 7.91408 13.4502 8.11561 13.5899 8.38801C13.6594 8.52362 13.6647 8.55161 13.6207 8.55161C13.6037 8.55161 13.5899 8.54681 13.5899 8.54093ZM16.074 8.11664C16.074 8.1006 16.0919 8.0638 16.1138 8.03485C16.1792 7.94832 16.1843 7.88166 16.1369 7.73346C16.1015 7.62277 16.0975 7.58508 16.1157 7.53491C16.1422 7.46184 16.2553 7.33416 16.2936 7.33416C16.3396 7.33416 16.3231 7.3757 16.2507 7.44183C16.1572 7.52719 16.147 7.58476 16.1993 7.73014C16.2495 7.86983 16.2419 7.94547 16.1657 8.06535C16.1136 8.14718 16.074 8.16934 16.074 8.11664ZM11.7089 7.32882C11.7158 7.30239 11.7269 7.21828 11.7337 7.14193C11.7451 7.01265 11.7367 6.95196 11.6568 6.58659C11.6529 6.56897 11.6636 6.55456 11.6806 6.55456C11.7168 6.55456 11.7995 6.89888 11.8021 7.06078C11.8045 7.21096 11.7656 7.37687 11.7278 7.37687C11.7051 7.37687 11.6998 7.36344 11.7089 7.32882ZM12.1053 7.27153C11.9394 7.11241 11.8629 6.81462 11.9615 6.71198L12.004 6.66777L12.0379 6.82475C12.0565 6.91109 12.1037 7.06273 12.1428 7.16174C12.1819 7.26073 12.2101 7.34571 12.2054 7.35056C12.2008 7.35542 12.1557 7.31985 12.1053 7.27153ZM14.8831 7.16676C14.9192 7.11993 14.9512 7.04899 14.9576 7.00123C14.9752 6.87086 14.9872 6.84556 15.0072 6.8963C15.0509 7.00682 14.999 7.16548 14.9021 7.21762C14.8161 7.26386 14.8135 7.25683 14.8831 7.16676ZM10.9826 6.19337C10.9826 6.1768 11.0418 6.12429 11.1143 6.07667C11.3014 5.95378 11.3593 5.85764 11.2648 5.82685C11.127 5.78193 11.0418 5.64604 11.0281 5.44923C11.0195 5.32579 11.0229 5.30506 11.0516 5.30506C11.0774 5.30506 11.0852 5.32612 11.0853 5.39584C11.0858 5.60849 11.1749 5.7445 11.3353 5.77648C11.41 5.79137 11.4411 5.78556 11.533 5.73961C11.593 5.70962 11.6484 5.6917 11.6562 5.69979C11.6793 5.72386 11.5628 5.81451 11.4785 5.83813C11.4233 5.85359 11.3856 5.88339 11.3505 5.93922C11.3012 6.01771 11.0575 6.21898 11.0082 6.22195C10.9941 6.2228 10.9826 6.20994 10.9826 6.19337ZM11.3213 5.64237C11.1674 5.55055 11.2202 5.30506 11.3938 5.30506C11.4755 5.30506 11.5779 5.40601 11.5779 5.48661C11.5779 5.5578 11.4753 5.6684 11.4101 5.66751C11.3839 5.66716 11.3439 5.65584 11.3213 5.64237ZM15.3258 5.61953C15.3089 5.59278 15.2711 5.49431 15.2417 5.40071C15.1806 5.20588 15.1397 5.13017 15.0437 5.03389C14.9853 4.97525 14.8386 4.8931 14.7139 4.84917C14.6701 4.83373 14.6662 4.79245 14.7085 4.79245C14.761 4.79245 14.9465 4.87329 15.0267 4.93105C15.1413 5.01372 15.2211 5.14479 15.2993 5.37921C15.352 5.53702 15.3808 5.59432 15.4139 5.60706C15.474 5.63017 15.4698 5.66816 15.4073 5.66816C15.377 5.66816 15.344 5.64847 15.3258 5.61953ZM11.1736 5.18572C11.1601 5.17935 11.1533 5.16276 11.1584 5.14883C11.1651 5.13048 11.2508 5.1253 11.4695 5.13C11.6887 5.13471 11.8111 5.12727 11.9167 5.10282C12.0721 5.06687 12.3319 4.95029 12.3092 4.9267C12.3017 4.91889 12.2199 4.88977 12.1274 4.86199C11.8583 4.78117 11.4959 4.59724 11.4958 4.54148C11.4958 4.50149 11.5249 4.50858 11.6335 4.57499C11.8415 4.70228 12.1629 4.82441 12.408 4.8693L12.4886 4.88408L12.4395 4.92546C12.3502 5.00071 12.2156 5.07388 12.0652 5.12902C11.9319 5.17786 11.8799 5.18414 11.5574 5.19036C11.3598 5.19417 11.1871 5.19209 11.1736 5.18572ZM13.5488 5.1876C13.5488 5.1809 13.5639 5.15142 13.5824 5.1221C13.6076 5.08211 13.6129 5.04092 13.6038 4.95732L13.5917 4.84585L13.6318 4.89628C13.6756 4.95119 13.6842 5.04921 13.651 5.11375C13.6307 5.15319 13.5488 5.21237 13.5488 5.1876ZM13.364 5.05995C13.364 5.05297 13.3791 5.02341 13.3974 4.99427C13.4213 4.95628 13.428 4.91098 13.4209 4.83431C13.4114 4.73122 13.4124 4.72864 13.4491 4.76321C13.5 4.81106 13.5013 4.96548 13.4513 5.01017C13.4031 5.0532 13.364 5.0755 13.364 5.05995ZM14.2779 4.52766C14.2495 4.49815 14.2265 4.45676 14.2268 4.43567C14.2272 4.402 14.2316 4.40306 14.2627 4.44428C14.3076 4.50375 14.4052 4.54232 14.4687 4.52572C14.5035 4.51666 14.5152 4.52099 14.509 4.54056C14.5042 4.55576 14.4618 4.57114 14.4149 4.57474C14.346 4.58003 14.3194 4.57089 14.2779 4.52766ZM13.9052 4.36598C13.8556 4.34459 13.7952 4.2641 13.7952 4.21948C13.7952 4.20133 13.8231 4.21548 13.8677 4.25627C13.914 4.29854 13.9624 4.32256 14.0012 4.32256C14.0347 4.32256 14.0621 4.33217 14.0621 4.34392C14.0621 4.35567 14.0551 4.36541 14.0467 4.36557C14.0382 4.36578 14.0128 4.37016 13.9902 4.37541C13.9676 4.38067 13.9294 4.37642 13.9052 4.36598ZM12.6684 4.13925C12.6097 4.06161 12.6132 3.97511 12.6781 3.90191C12.7198 3.85483 12.7283 3.85114 12.7177 3.8847C12.6868 3.98261 12.6831 4.04662 12.7048 4.11138C12.7348 4.20086 12.7222 4.21048 12.6684 4.13925ZM12.5154 3.6458C12.5081 3.59916 12.4767 3.53939 12.4369 3.49671C12.3551 3.40892 12.4041 3.39661 12.5002 3.48078C12.5506 3.52491 12.5634 3.5527 12.5634 3.61836C12.5634 3.72644 12.5309 3.74503 12.5154 3.6458Z" fill="black"/>
<path d="M16.1404 16.3467C16.0154 16.6558 15.9445 16.9243 15.9434 17.3859" stroke="black" stroke-width="0.2"/>
<path d="M15.9629 17.3854L15.977 17.3711L15.9752 17.3864L15.9629 17.3854Z" fill="white"/>
</g>
<defs>
<clipPath id="clip0_204_2468">
<rect width="28" height="28" rx="14" fill="white"/>
</clipPath>
</defs>
</svg>
