<svg width="28" height="28" viewBox="0 0 28 28" fill="none" xmlns="http://www.w3.org/2000/svg">
<g clip-path="url(#clip0_204_2379)">
<path d="M32 27.9997H-10V25.8438H32V27.9997Z" fill="#D62234"/>
<path d="M32 25.8439H-10V23.6973H32V25.8439Z" fill="white"/>
<path d="M32 23.697H-10V21.541H32V23.697Z" fill="#D62234"/>
<path d="M32 21.5417H-10V19.3857H32V21.5417Z" fill="white"/>
<path d="M32 19.3855H-10V17.2295H32V19.3855Z" fill="#D62234"/>
<path d="M32 17.2292H-10V15.0732H32V17.2292Z" fill="white"/>
<path d="M32 15.0734H-10V12.9268H32V15.0734Z" fill="#D62234"/>
<path d="M32 12.9265H-10V10.7705H32V12.9265Z" fill="white"/>
<path d="M32 10.7703H-10V8.61426H32V10.7703Z" fill="#D62234"/>
<path d="M32 8.61498H-10V6.45898H32V8.61498Z" fill="white"/>
<path d="M32 6.45819H-10V4.31152H32V6.45819Z" fill="#D62234"/>
<path d="M32 4.31225H-10V2.15625H32V4.31225Z" fill="white"/>
<path d="M32 2.156H-10V0H32V2.156Z" fill="#D62234"/>
<path d="M11.5416 15.0733H-10V0H11.5416V15.0733Z" fill="#002B82"/>
<path d="M-8.81455 2.35223L-8.21695 1.92289L-7.62869 2.35223L-7.85279 1.66156L-7.25519 1.22289H-7.99285L-8.21695 0.532227L-8.45039 1.22289H-9.17871L-8.59045 1.66156L-8.81455 2.35223ZM-8.81455 5.40423L-8.21695 4.97489L-7.62869 5.40423L-7.85279 4.66689L-7.25519 4.23756H-7.99285L-8.21695 3.53756L-8.45039 4.23756H-9.17871L-8.59045 4.66689L-8.81455 5.36689V5.40423ZM-8.81455 8.45623L-8.21695 8.01756L-7.62869 8.45623L-7.85279 7.75623L-7.25519 7.32689H-7.99285L-8.21695 6.62689L-8.45039 7.32689H-9.17871L-8.59045 7.75623L-8.81455 8.45623ZM-7.99285 13.4216L-8.21695 12.7216L-8.45039 13.4216H-9.17871L-8.59045 13.8509L-8.81455 14.5509L-8.21695 14.1216L-7.62869 14.5509L-7.85279 13.8509L-7.25519 13.4216H-7.99285ZM-8.81455 11.4989L-8.21695 11.0696L-7.62869 11.4989L-7.85279 10.7989L-7.25519 10.3696H-7.99285L-8.21695 9.66956L-8.45039 10.3696H-9.17871L-8.59045 10.7989L-8.81455 11.4989ZM-5.33167 12.1336H-6.06933L-6.26542 11.4242L-6.52687 12.1336H-7.25519L-6.66693 12.5629L-6.89103 13.2629L-6.26542 12.8242L-5.67715 13.2536L-5.90125 12.5536L-5.33167 12.1336ZM0.532271 3.16423L0.270822 3.85489L0.868421 3.42556L1.46602 3.85489L1.23258 3.15489L1.83018 2.72556H1.09252L0.868421 2.02556L0.64432 2.72556H-0.0933399L0.504259 3.15489L0.532271 3.16423ZM1.97958 2.36156L2.56784 1.93223L3.16544 2.36156L2.94134 1.67089L3.5296 1.23223H2.80128L2.56784 0.532227L2.34374 1.22289H1.60608L2.20368 1.66156L1.97958 2.35223V2.36156ZM-3.072 3.16423L-3.2961 3.86423L-2.6985 3.43489L-2.11024 3.86423L-2.33434 3.16423L-1.73674 2.73489H-2.4744L-2.6985 2.03489L-2.93193 2.73489H-3.66026L-3.072 3.16423ZM-1.59667 2.35223L-1.00841 1.92289L-0.410814 2.35223L-0.662927 1.66156L-0.0653276 1.22289H-0.802988L-1.02709 0.532227L-1.25119 1.22289H-1.98885L-1.39125 1.66156L-1.59667 2.35223ZM-5.20094 2.35223L-4.60334 1.92289L-4.00575 2.35223L-4.23918 1.66156L-3.64158 1.22289H-4.39792L-4.62202 0.532227L-4.84612 1.22289H-5.58378L-4.98618 1.66156L-5.21962 2.35223H-5.20094ZM-6.64825 3.15489L-6.87235 3.85489L-6.26542 3.42556L-5.67715 3.85489L-5.90125 3.15489L-5.33167 2.72556H-6.06933L-6.26542 2.02556L-6.49885 2.72556H-7.25519L-6.66693 3.15489H-6.64825ZM-0.784314 13.4216L-1.00841 12.7216L-1.23251 13.4216H-1.98885L-1.39125 13.8509L-1.59667 14.5509L-1.00841 14.1216L-0.410814 14.5509L-0.662927 13.8509L-0.0653276 13.4216H-0.784314ZM9.78572 9.68823L9.55228 10.3882H8.82396L9.41222 10.8176L9.18812 11.5176L9.78572 11.0882L10.374 11.5176L10.1499 10.8176L10.7475 10.3882H10.0098L9.78572 9.68823ZM10.0098 13.4216L9.78572 12.7216L9.55228 13.4216H8.82396L9.41222 13.8509L9.18812 14.5509L9.78572 14.1216L10.374 14.5509L10.1499 13.8509L10.7475 13.4216H10.0098ZM-4.39792 13.4216L-4.62202 12.7216L-4.84612 13.4216H-5.58378L-4.98618 13.8509L-5.21962 14.5509L-4.62202 14.1216L-4.02442 14.5509L-4.25786 13.8509L-3.66026 13.4216H-4.39792ZM9.76704 6.62689L9.53361 7.32689H8.80528L9.39354 7.75623L9.16945 8.45623L9.76704 8.01756L10.3553 8.45623L10.1312 7.75623L10.7288 7.32689H9.99114L9.76704 6.62689ZM9.76704 3.57489L9.53361 4.27489H8.80528L9.39354 4.70423L9.16945 5.40423L9.76704 4.97489L10.3553 5.40423L10.1312 4.66689L10.7288 4.23756H9.99114L9.76704 3.53756V3.57489ZM9.04806 12.1336H8.31973L8.0863 11.4336L7.8622 12.1336H7.12453L7.72213 12.5629L7.49803 13.2629L8.0863 12.8336L8.6839 13.2629L8.45979 12.5629L9.04806 12.1336ZM4.1272 3.15489L3.9031 3.85489L4.49136 3.42556L5.08896 3.85489L4.86486 3.15489L5.45312 2.72556H4.7248L4.49136 2.02556L4.26726 2.72556H3.5296L4.1272 3.15489ZM-1.73674 12.1336H-2.4744L-2.6985 11.4336L-2.93193 12.1336H-3.66026L-3.072 12.5629L-3.2961 13.2629L-2.6985 12.8336L-2.11024 13.2629L-2.33434 12.5629L-1.73674 12.1336ZM2.80128 13.4309L2.56784 12.7309L2.34374 13.4309H1.60608L2.20368 13.8602L1.97958 14.5602L2.56784 14.1309L3.16544 14.5602L2.94134 13.8602L3.5296 13.4309H2.80128ZM5.45312 12.1336H4.7248L4.49136 11.4336L4.26726 12.1336H3.5296L4.1272 12.5629L3.9031 13.2629L4.49136 12.8336L5.08896 13.2629L4.86486 12.5629L5.45312 12.1336ZM1.85819 12.1336H1.12053L0.896433 11.4336L0.672334 12.1336H-0.0653276L0.532271 12.5629L0.270822 13.2536L0.868421 12.8242L1.46602 13.2536L1.23258 12.5536L1.85819 12.1336ZM6.39621 13.4309L6.17211 12.7309L5.93867 13.4309H5.21035L5.79861 13.8602L5.57451 14.5602L6.17211 14.1309L6.76037 14.5602L6.53627 13.8602L7.12453 13.4309H6.39621ZM5.57451 2.35223L6.17211 1.92289L6.76037 2.35223L6.53627 1.66156L7.12453 1.22289H6.39621L6.17211 0.532227L5.93867 1.22289H5.21035L5.79861 1.66156L5.57451 2.35223ZM1.12053 8.98823L0.896433 8.29756L0.672334 8.98823H-0.0653276L0.532271 9.42689L0.298834 10.1176L0.896433 9.68823L1.49403 10.1176L1.2606 9.42689L1.85819 8.98823H1.12053ZM-6.06933 8.98823L-6.26542 8.29756L-6.49885 8.98823H-7.25519L-6.66693 9.42689L-6.89103 10.1176L-6.26542 9.68823L-5.67715 10.1176L-5.90125 9.42689L-5.33167 8.98823H-6.06933ZM4.7248 8.98823L4.49136 8.29756L4.26726 8.98823H3.5296L4.1272 9.42689L3.9031 10.1176L4.49136 9.68823L5.08896 10.1176L4.86486 9.42689L5.45312 8.98823H4.7248ZM-2.4744 8.98823L-2.6985 8.29756L-2.93193 8.98823H-3.66026L-3.072 9.42689L-3.2961 10.1176L-2.6985 9.68823L-2.11024 10.1176L-2.33434 9.42689L-1.73674 8.98823H-2.4744ZM-4.39792 10.3696L-4.62202 9.66956L-4.84612 10.3696H-5.58378L-4.98618 10.7989L-5.21962 11.4989L-4.62202 11.0696L-4.02442 11.4989L-4.25786 10.7989L-3.66026 10.3696H-4.39792ZM2.80128 10.3696L2.56784 9.66956L2.34374 10.3696H1.60608L2.20368 10.7989L1.97958 11.4989L2.56784 11.0696L3.16544 11.4989L2.94134 10.7989L3.5296 10.3696H2.80128ZM6.39621 10.3696L6.17211 9.66956L5.93867 10.3696H5.21035L5.79861 10.7989L5.57451 11.4989L6.17211 11.0696L6.76037 11.4989L6.53627 10.7989L7.12453 10.3696H6.39621ZM7.74081 3.15489L7.51671 3.85489L8.10497 3.42556L8.70257 3.85489L8.47847 3.15489L9.06673 2.72556H8.33841L8.10497 2.02556L7.88087 2.72556H7.14321L7.74081 3.15489ZM9.18812 2.35223L9.78572 1.92289L10.374 2.35223L10.1499 1.66156L10.7475 1.22289H10.0098L9.76704 0.532227L9.53361 1.22289H8.80528L9.39354 1.66156L9.16945 2.35223H9.18812ZM8.33841 8.98823L8.10497 8.29756L7.88087 8.98823H7.14321L7.74081 9.42689L7.51671 10.1176L8.10497 9.68823L8.70257 10.1176L8.47847 9.42689L9.06673 8.98823H8.33841ZM8.33841 5.86156L8.10497 5.16156L7.88087 5.86156H7.14321L7.74081 6.29089L7.51671 6.99089L8.0863 6.53356L8.6839 6.97223L8.45979 6.27223L9.04806 5.84289L8.33841 5.86156ZM-0.802988 10.3696L-1.02709 9.66956L-1.25119 10.3696H-1.98885L-1.39125 10.7989L-1.59667 11.4989L-1.00841 11.0696L-0.410814 11.4989L-0.662927 10.7989L-0.0653276 10.3696H-0.802988ZM-4.39792 7.32689L-4.62202 6.62689L-4.84612 7.32689H-5.58378L-4.98618 7.75623L-5.21962 8.45623L-4.62202 8.01756L-4.02442 8.45623L-4.25786 7.75623L-3.66026 7.32689H-4.39792ZM-6.26542 5.16156L-6.49885 5.86156H-7.25519L-6.66693 6.29089L-6.89103 6.99089L-6.26542 6.53356L-5.67715 6.97223L-5.90125 6.27223L-5.33167 5.86156H-6.06933L-6.26542 5.16156ZM6.39621 7.32689L6.17211 6.62689L5.93867 7.32689H5.21035L5.79861 7.75623L5.57451 8.45623L6.17211 8.01756L6.76037 8.45623L6.53627 7.75623L7.12453 7.32689H6.39621ZM-0.802988 7.32689L-1.02709 6.62689L-1.25119 7.32689H-1.98885L-1.39125 7.75623L-1.59667 8.45623L-1.00841 8.01756L-0.410814 8.45623L-0.662927 7.75623L-0.0653276 7.32689H-0.802988ZM-4.62202 3.59356L-4.84612 4.29356H-5.58378L-4.98618 4.66689L-5.21962 5.36689L-4.62202 4.93756L-4.02442 5.36689L-4.25786 4.66689L-3.66026 4.23756H-4.39792L-4.62202 3.53756V3.59356ZM2.84797 7.32689L2.61453 6.62689L2.39043 7.32689H1.65277L2.25037 7.75623L2.02627 8.45623L2.61453 8.01756L3.21213 8.45623L2.98803 7.75623L3.57629 7.32689H2.84797ZM-0.980401 3.59356L-1.2045 4.29356H-1.98885L-1.39125 4.66689L-1.59667 5.40423L-1.00841 4.97489L-0.410814 5.40423L-0.662927 4.66689L-0.0653276 4.23756H-0.802988L-1.02709 3.53756L-0.980401 3.59356ZM2.61453 3.59356L2.39043 4.29356H1.65277L2.25037 4.72289L2.02627 5.42289L2.61453 4.99356L3.21213 5.42289L2.94134 4.66689L3.5296 4.23756H2.80128L2.56784 3.53756L2.61453 3.59356ZM-2.6985 5.16156L-2.93193 5.86156H-3.66026L-3.072 6.29089L-3.2961 6.99089L-2.6985 6.53356L-2.11024 6.97223L-2.33434 6.27223L-1.73674 5.84289H-2.4744L-2.6985 5.14289V5.16156ZM4.49136 5.16156L4.26726 5.86156H3.5296L4.1272 6.29089L3.9031 6.99089L4.49136 6.53356L5.08896 6.97223L4.86486 6.27223L5.45312 5.84289H4.7248L4.49136 5.14289V5.16156ZM6.35886 4.22823L6.13476 3.52823L5.90133 4.22823H5.173L5.76126 4.65756L5.53716 5.35756L6.13476 4.92823L6.72302 5.35756L6.53627 4.66689L7.12453 4.23756L6.35886 4.22823ZM1.08318 5.81489H1.82084L1.22325 6.24423L1.45668 6.94423L0.896433 6.53356L0.270822 6.99089L0.504259 6.29089L-0.0933399 5.86156H0.64432L0.868421 5.16156L1.09252 5.86156L1.08318 5.81489Z" fill="white"/>
</g>
<defs>
<clipPath id="clip0_204_2379">
<rect width="28" height="28" rx="14" fill="white"/>
</clipPath>
</defs>
</svg>
