<svg width="76" height="76" viewBox="0 0 76 76" fill="none" xmlns="http://www.w3.org/2000/svg">
<circle cx="38" cy="38" r="38" fill="#2DC100"/>
<path d="M54.4599 33.044C41.8293 26.6272 27.4756 38.4202 34.0393 49.2372C37.0879 54.3154 44.1222 57.5238 52.4434 55.1186C54.1102 55.762 55.5913 56.8113 57.1934 57.5929C56.7615 56.1852 56.3297 54.799 55.859 53.4172C64.4695 47.294 62.5868 37.1765 54.4599 33.044ZM44.377 40.3417C44.2611 40.6477 44.0701 40.9195 43.8217 41.1324C43.5732 41.3452 43.2753 41.4922 42.9552 41.5598C42.6351 41.6274 42.3031 41.6135 41.9898 41.5193C41.6765 41.4251 41.3919 41.2537 41.1622 41.0207C40.9325 40.7878 40.765 40.5009 40.6751 40.1863C40.5852 39.8718 40.5759 39.5397 40.6479 39.2205C40.7199 38.9014 40.8709 38.6055 41.0872 38.36C41.3034 38.1145 41.5779 37.9273 41.8854 37.8156C43.3406 37.2024 45.0161 38.8865 44.377 40.3417ZM53.8295 40.5274H53.8554C53.7146 40.7991 53.5127 41.0345 53.2657 41.2151C53.0187 41.3957 52.7333 41.5167 52.4317 41.5686C52.1301 41.6204 51.8207 41.6018 51.5275 41.514C51.2344 41.4263 50.9655 41.2719 50.742 41.0629C50.3897 40.649 50.1555 40.1478 50.064 39.612C50.267 38.7008 50.8931 37.7595 51.9036 37.7163C53.294 37.522 54.542 39.2492 53.8295 40.5274Z" fill="white"/>
<path d="M48.4577 30.4013C47.5941 26.1609 44.6318 22.5811 40.9009 20.517H40.9527C27.7045 13.0293 11.2134 23.4706 14.4002 35.7818C15.2638 39.435 17.7813 42.5009 20.8472 44.5434C20.2557 46.2318 19.69 47.9159 19.1588 49.6129C21.0847 48.6025 23.015 47.5445 24.9452 46.5168C27.2789 47.2737 29.726 47.6214 32.1782 47.5445C29.1554 38.8218 36.9282 29.5809 48.4577 30.4013ZM36.4532 25.3361C36.8261 25.2009 37.2263 25.1589 37.6192 25.2136C38.012 25.2684 38.3855 25.4182 38.7073 25.6502C39.029 25.8821 39.2893 26.1891 39.4654 26.5446C39.6415 26.9 39.7281 27.293 39.7177 27.6895V27.7154C39.7177 29.6197 37.1959 30.8115 35.7709 29.5204C34.2941 28.4538 34.7259 25.8716 36.4532 25.3361ZM27.7347 28.199C27.3936 29.8572 25.1827 30.6561 23.8872 29.542C22.3845 28.4797 22.8077 25.85 24.5695 25.3145C26.2968 24.6452 28.2572 26.407 27.7347 28.199Z" fill="white"/>
</svg>
