<svg width="20" height="20" viewBox="0 0 20 20" fill="none" xmlns="http://www.w3.org/2000/svg">
<path d="M15 15.7165H14.3667C13.7 15.7165 13.0667 15.9748 12.6 16.4414L11.175 17.8498C10.525 18.4915 9.46667 18.4915 8.81667 17.8498L7.39166 16.4414C6.925 15.9748 6.28333 15.7165 5.625 15.7165H5C3.61667 15.7165 2.5 14.6081 2.5 13.2415V4.14978C2.5 2.78311 3.61667 1.6748 5 1.6748H15C16.3833 1.6748 17.5 2.78311 17.5 4.14978V13.2415C17.5 14.5998 16.3833 15.7165 15 15.7165Z" stroke="white" stroke-miterlimit="10" stroke-linecap="round" stroke-linejoin="round"/>
<path d="M5.83325 7.63348C5.83325 6.85848 6.46659 6.2251 7.24159 6.2251C8.01659 6.2251 8.64992 6.85848 8.64992 7.63348C8.64992 9.20015 6.42491 9.36681 5.93325 10.8585C5.83325 11.1668 6.09158 11.4751 6.41658 11.4751H8.64992" stroke="white" stroke-linecap="round" stroke-linejoin="round"/>
<path d="M13.3665 11.4666V6.70826C13.3665 6.49159 13.2248 6.29987 13.0165 6.24154C12.8081 6.18321 12.5831 6.26654 12.4665 6.44987C11.8665 7.41654 11.2165 8.51655 10.6498 9.48322C10.5581 9.64155 10.5581 9.84989 10.6498 10.0082C10.7415 10.1666 10.9165 10.2665 11.1081 10.2665H14.1665" stroke="white" stroke-linecap="round" stroke-linejoin="round"/>
</svg>
