<svg xmlns="http://www.w3.org/2000/svg" width="16" height="16" viewBox="0 0 16 16" fill="none">
  <path d="M5.33289 14.6667H10.6662C13.3462 14.6667 13.8262 13.5933 13.9662 12.2867L14.4662 6.95333C14.6462 5.32667 14.1796 4 11.3329 4H4.66623C1.81956 4 1.35289 5.32667 1.53289 6.95333L2.03289 12.2867C2.17289 13.5933 2.65289 14.6667 5.33289 14.6667Z" stroke="#333333" stroke-width="1.5" stroke-miterlimit="10" stroke-linecap="round" stroke-linejoin="round"/>
  <path d="M5.33301 4.00016V3.46683C5.33301 2.28683 5.33301 1.3335 7.46634 1.3335H8.53301C10.6663 1.3335 10.6663 2.28683 10.6663 3.46683V4.00016" stroke="#333333" stroke-width="1.5" stroke-miterlimit="10" stroke-linecap="round" stroke-linejoin="round"/>
  <path d="M9.33366 8.66667V9.33333C9.33366 9.34 9.33366 9.34 9.33366 9.34667C9.33366 10.0733 9.32699 10.6667 8.00033 10.6667C6.68033 10.6667 6.66699 10.08 6.66699 9.35333V8.66667C6.66699 8 6.66699 8 7.33366 8H8.66699C9.33366 8 9.33366 8 9.33366 8.66667Z" stroke="#333333" stroke-width="1.5" stroke-miterlimit="10" stroke-linecap="round" stroke-linejoin="round"/>
  <path d="M14.433 7.3335C12.893 8.4535 11.133 9.12016 9.33301 9.34683" stroke="#333333" stroke-width="1.5" stroke-miterlimit="10" stroke-linecap="round" stroke-linejoin="round"/>
  <path d="M1.74707 7.51318C3.24707 8.53985 4.9404 9.15985 6.66707 9.35318" stroke="#333333" stroke-width="1.5" stroke-miterlimit="10" stroke-linecap="round" stroke-linejoin="round"/>
</svg>