<svg xmlns="http://www.w3.org/2000/svg" width="24" height="24" viewBox="0 0 24 24" fill="none">
  <path d="M19.7901 14.9298C17.7301 16.9798 14.7801 17.6098 12.1901 16.7998L7.48015 21.4998C7.14015 21.8498 6.47015 22.0598 5.99015 21.9898L3.81015 21.6898C3.09015 21.5898 2.42015 20.9098 2.31015 20.1898L2.01015 18.0098C1.94015 17.5298 2.17015 16.8598 2.50015 16.5198L7.20015 11.8198C6.40015 9.21982 7.02015 6.26982 9.08015 4.21982C12.0301 1.26982 16.8201 1.26982 19.7801 4.21982C22.7401 7.16982 22.7401 11.9798 19.7901 14.9298Z" stroke="#333333" stroke-width="1.5" stroke-miterlimit="10" stroke-linecap="round" stroke-linejoin="round"/>
  <path d="M6.89014 17.4902L9.19014 19.7902" stroke="#333333" stroke-width="1.5" stroke-miterlimit="10" stroke-linecap="round" stroke-linejoin="round"/>
  <path d="M14.5 11C15.3284 11 16 10.3284 16 9.5C16 8.67157 15.3284 8 14.5 8C13.6716 8 13 8.67157 13 9.5C13 10.3284 13.6716 11 14.5 11Z" stroke="#333333" stroke-width="1.5" stroke-linecap="round" stroke-linejoin="round"/>
</svg>