<svg xmlns="http://www.w3.org/2000/svg" width="28" height="28" viewBox="0 0 28 28" fill="none">
  <g clip-path="url(#clip0_73_7383)">
    <path d="M34.9813 28H-7V0H34.9813V28Z" fill="#003673"/>
    <path d="M34.9813 0H30.1653L17.5093 8.44667V0H10.5093V8.44667L-2.14667 0H-7V3.20133L3.93867 10.5H-6.96267V17.5H3.93867L-7 24.7987V28H-2.14667L10.5093 19.5533V28H17.5093V19.5533L30.1653 28H34.9813V24.78L24.0707 17.5H34.9813V10.5H24.0707L34.9813 3.22V0Z" fill="white"/>
    <path d="M16.1275 28H11.8809V0H16.1275V28Z" fill="#EC171D"/>
    <path d="M-6.96289 16.1187V11.8813H34.9811V16.1187H-6.96289Z" fill="#EC171D"/>
    <path d="M19.2461 17.5L34.9821 28V25.9L22.3914 17.5H19.2461Z" fill="#EC171D"/>
    <path d="M34.9618 0H33.2165L17.4805 10.5H20.6165L34.9618 0.933333V0Z" fill="#EC171D"/>
    <path d="M-5.22689 28L10.5091 17.5H7.37311L-6.96289 27.0667V28H-5.22689Z" fill="#EC171D"/>
    <path d="M-6.96289 2.1L5.61844 10.5H8.76377L-6.96289 0V2.1Z" fill="#EC171D"/>
  </g>
  <defs>
    <clipPath id="clip0_73_7383">
      <rect width="28" height="28" rx="14" fill="white"/>
    </clipPath>
  </defs>
</svg>