<svg width="28" height="28" viewBox="0 0 28 28" fill="none" xmlns="http://www.w3.org/2000/svg">
<g clip-path="url(#clip0_118_11092)">
<path d="M-7 0V28H34.9813V0H-7Z" fill="#003399"/>
<path d="M13.9911 3.18262L14.3178 4.18128H15.3631L14.5138 4.79728L14.8405 5.79595L13.9911 5.17062L13.1418 5.79595L13.4685 4.79728L12.6191 4.18128H13.6645L13.9911 3.18262Z" fill="#FFCC00"/>
<path d="M9.32512 4.43311L9.65179 5.43177H10.6971L9.84779 6.03844L10.1745 7.03711L9.32512 6.42111L8.47579 7.03711L8.80246 6.03844L7.95312 5.43177H8.99846L9.32512 4.43311Z" fill="#FFCC00"/>
<path d="M18.6572 4.43311L18.9838 5.43177H20.0292L19.1798 6.03844L19.5065 7.03711L18.6572 6.42111L17.8078 7.03711L18.1345 6.03844L17.2852 5.43177H18.3305L18.6572 4.43311Z" fill="#FFCC00"/>
<path d="M5.91692 7.85889L6.24359 8.85755H7.28892L6.43959 9.47355L6.76626 10.4722L5.91692 9.85622L5.06759 10.4722L5.39426 9.47355L4.54492 8.85755H5.59026L5.91692 7.85889Z" fill="#FFCC00"/>
<path d="M22.0556 7.85889L22.3729 8.85755H23.4276L22.5783 9.47355L22.8956 10.4722L22.0556 9.85622L21.2063 10.4722L21.5329 9.47355L20.6836 8.85755H21.7289L22.0556 7.85889Z" fill="#FFCC00"/>
<path d="M4.67669 12.5161L5.00335 13.5148H6.04869L5.19935 14.1308L5.52602 15.1201L4.67669 14.5041L3.83669 15.1201L4.15402 14.1308L3.30469 13.5148H4.35935L4.67669 12.5161Z" fill="#FFCC00"/>
<path d="M23.3251 12.5161L23.6518 13.5148H24.6971L23.8478 14.1308L24.1745 15.1201L23.3251 14.5041L22.4758 15.1201L22.8025 14.1308L21.9531 13.5148H22.9985L23.3251 12.5161Z" fill="#FFCC00"/>
<path d="M5.89934 17.1641L6.22601 18.1627H7.27134L6.42201 18.7787L6.74868 19.7774L5.89934 19.1614L5.05001 19.7774L5.37668 18.7787L4.52734 18.1627H5.58201L5.89934 17.1641Z" fill="#FFCC00"/>
<path d="M22.0638 17.1641L22.3905 18.1627H23.4452L22.5958 18.7787L22.9132 19.7774L22.0638 19.1614L21.2238 19.7774L21.5412 18.7787L20.7012 18.1627H21.7465L22.0638 17.1641Z" fill="#FFCC00"/>
<path d="M9.30559 20.5894L9.63226 21.5787H10.6776L9.83759 22.1947L10.1549 23.1934L9.30559 22.5774L8.46559 23.1934L8.78293 22.1947L7.93359 21.5787H8.98826L9.30559 20.5894Z" fill="#FFCC00"/>
<path d="M18.6493 20.5894L18.976 21.5787H20.0213L19.1813 22.1947L19.4987 23.1934L18.6493 22.5774L17.8 23.1934L18.1267 22.1947L17.2773 21.5787H18.332L18.6493 20.5894Z" fill="#FFCC00"/>
<path d="M13.9911 21.8867L14.3178 22.8854H15.3631L14.5138 23.5014L14.8405 24.5001L13.9911 23.8841L13.1418 24.5001L13.4685 23.5014L12.6191 22.8854H13.6645L13.9911 21.8867Z" fill="#FFCC00"/>
</g>
<defs>
<clipPath id="clip0_118_11092">
<rect width="28" height="28" rx="14" fill="white"/>
</clipPath>
</defs>
</svg>
