<?xml version="1.0" encoding="UTF-8"?>
<!DOCTYPE svg PUBLIC "-//W3C//DTD SVG 1.1//EN" "http://www.w3.org/Graphics/SVG/1.1/DTD/svg11.dtd">
<svg xmlns="http://www.w3.org/2000/svg" version="1.1" width="78px" height="78px" style="shape-rendering:geometricPrecision; text-rendering:geometricPrecision; image-rendering:optimizeQuality; fill-rule:evenodd; clip-rule:evenodd" xmlns:xlink="http://www.w3.org/1999/xlink">
<g><path style="opacity:1" fill="#0098ca" d="M 70.5,59.5 C 70.5,62.8333 70.5,66.1667 70.5,69.5C 49.8333,69.5 29.1667,69.5 8.5,69.5C 8.5,48.8333 8.5,28.1667 8.5,7.5C 11.5,7.5 14.5,7.5 17.5,7.5C 17.5,24.8333 17.5,42.1667 17.5,59.5C 35.1667,59.5 52.8333,59.5 70.5,59.5 Z"/></g>
<g><path style="opacity:0.631" fill="#04445a" d="M 70.5,59.5 C 52.8333,59.5 35.1667,59.5 17.5,59.5C 17.5,42.1667 17.5,24.8333 17.5,7.5C 14.5,7.5 11.5,7.5 8.5,7.5C 8.5,28.1667 8.5,48.8333 8.5,69.5C 29.1667,69.5 49.8333,69.5 70.5,69.5C 49.6733,70.4973 28.6733,70.8306 7.5,70.5C 7.5,49.1667 7.5,27.8333 7.5,6.5C 11.1667,6.5 14.8333,6.5 18.5,6.5C 18.5,23.8333 18.5,41.1667 18.5,58.5C 36.008,58.17 53.3414,58.5033 70.5,59.5 Z"/></g>
<g><path style="opacity:1" fill="#FFFFFF" d="M 20.5,7.5 C 36.8333,7.5 53.1667,7.5 69.5,7.5C 69.5,23.8333 69.5,40.1667 69.5,56.5C 67.5,56.5 65.5,56.5 63.5,56.5C 63.8323,44.4815 63.499,32.4815 62.5,20.5C 61.8933,20.6236 61.56,20.9569 61.5,21.5C 50.0354,33.4651 38.3687,45.2985 26.5,57C 24.5273,57.4955 22.5273,57.6621 20.5,57.5C 20.3367,55.1432 20.5034,52.8098 21,50.5C 26.3686,44.9637 31.8686,39.6303 37.5,34.5C 40.1667,33.8333 41.8333,32.1667 42.5,29.5C 46.5,24.8333 50.8333,20.5 55.5,16.5C 56.2891,16.2172 56.9558,15.7172 57.5,15C 45.1712,14.5001 32.8378,14.3335 20.5,14.5C 20.5,12.1667 20.5,9.83333 20.5,7.5 Z"/></g>
<g><path style="opacity:0.776" fill="#FFFFFF" d="M 20.5,7.5 C 36.9916,6.50348 53.6583,6.17015 70.5,6.5C 70.5,23.5 70.5,40.5 70.5,57.5C 67.6146,57.8064 64.9479,57.4731 62.5,56.5C 62.8333,56.5 63.1667,56.5 63.5,56.5C 65.5,56.5 67.5,56.5 69.5,56.5C 69.5,40.1667 69.5,23.8333 69.5,7.5C 53.1667,7.5 36.8333,7.5 20.5,7.5 Z"/></g>
<g><path style="opacity:0.294" fill="#FFFFFF" d="M 20.5,14.5 C 32.8378,14.3335 45.1712,14.5001 57.5,15C 56.9558,15.7172 56.2891,16.2172 55.5,16.5C 43.8333,15.8333 32.1667,15.1667 20.5,14.5 Z"/></g>
<g><path style="opacity:1" fill="#FFFFFF" d="M 23.5,18.5 C 29.6222,20.8648 29.9555,23.8648 24.5,27.5C 22.6841,26.1851 21.0175,24.6851 19.5,23C 21.0414,21.6288 22.3747,20.1288 23.5,18.5 Z"/></g>
<g><path style="opacity:1" fill="#FFFFFF" d="M 39.5,18.5 C 46.3212,20.7439 46.8212,23.7439 41,27.5C 39.3149,25.9825 37.8149,24.3159 36.5,22.5C 37.5244,21.1482 38.5244,19.8149 39.5,18.5 Z"/></g>
<g><path style="opacity:0.69" fill="#FFFFFF" d="M 61.5,21.5 C 61.56,20.9569 61.8933,20.6236 62.5,20.5C 63.499,32.4815 63.8323,44.4815 63.5,56.5C 63.1667,56.5 62.8333,56.5 62.5,56.5C 62.8283,44.6547 62.4949,32.988 61.5,21.5 Z"/></g>
<g><path style="opacity:1" fill="#FFFFFF" d="M 31.5,26.5 C 37.6222,28.8648 37.9555,31.8648 32.5,35.5C 30.6841,34.1851 29.0175,32.6851 27.5,31C 29.0414,29.6288 30.3747,28.1288 31.5,26.5 Z"/></g>
<g><path style="opacity:0.925" fill="#FFFFFF" d="M 42.5,29.5 C 41.8333,32.1667 40.1667,33.8333 37.5,34.5C 38.8333,32.5 40.5,30.8333 42.5,29.5 Z"/></g>
<g><path style="opacity:1" fill="#FFFFFF" d="M 55.5,40.5 C 54.3951,39.3995 53.0618,38.7329 51.5,38.5C 50.4433,35.6281 51.6099,33.6281 55,32.5C 56.5,34 58,35.5 59.5,37C 58.2949,38.3756 56.9616,39.5423 55.5,40.5 Z"/></g>
<g><path style="opacity:0.518" fill="#FFFFFF" d="M 51.5,38.5 C 53.0618,38.7329 54.3951,39.3995 55.5,40.5C 53.7084,41.4728 52.375,40.8061 51.5,38.5 Z"/></g>
<g><path style="opacity:0.999" fill="#097094" d="M 20.5,38.5 C 22.1992,38.3398 23.8659,38.5065 25.5,39C 26.8333,40.3333 26.8333,41.6667 25.5,43C 23.8659,43.4935 22.1992,43.6602 20.5,43.5C 20.5,41.8333 20.5,40.1667 20.5,38.5 Z"/></g>
<g><path style="opacity:1" fill="#FFFFFF" d="M 45.5,40.5 C 52.6891,42.966 53.0224,45.966 46.5,49.5C 41.6341,46.9265 41.3008,43.9265 45.5,40.5 Z"/></g>
<g><path style="opacity:1" fill="#FFFFFF" d="M 54.5,48.5 C 56.2959,49.7927 57.9625,51.2927 59.5,53C 56.5827,58.4964 53.5827,58.6631 50.5,53.5C 51.8569,51.8144 53.1902,50.1477 54.5,48.5 Z"/></g>
<g><path style="opacity:0.999" fill="#086485" d="M 34.5,51.5 C 39.1585,51.0146 40.4919,52.848 38.5,57C 34.1258,57.4241 32.7925,55.5907 34.5,51.5 Z"/></g>
</svg>
