<svg width="20" height="20" viewBox="0 0 20 20" fill="none" xmlns="http://www.w3.org/2000/svg">
<path d="M15.8334 7.49984C15.8334 8.70817 15.4751 9.81652 14.8584 10.7415C13.9584 12.0748 12.5334 13.0165 10.8751 13.2582C10.5917 13.3082 10.3001 13.3332 10.0001 13.3332C9.70008 13.3332 9.40841 13.3082 9.12508 13.2582C7.46675 13.0165 6.04175 12.0748 5.14175 10.7415C4.52508 9.81652 4.16675 8.70817 4.16675 7.49984C4.16675 4.27484 6.77508 1.6665 10.0001 1.6665C13.2251 1.6665 15.8334 4.27484 15.8334 7.49984Z" stroke="white" stroke-linecap="round" stroke-linejoin="round"/>
<path d="M17.7082 15.3917L16.3332 15.7167C16.0249 15.7917 15.7832 16.025 15.7166 16.3333L15.4249 17.5583C15.2666 18.225 14.4166 18.425 13.9749 17.9L9.9999 13.3333L6.0249 17.9083C5.58324 18.4333 4.73324 18.2333 4.5749 17.5667L4.28324 16.3417C4.20824 16.0333 3.96657 15.7917 3.66657 15.725L2.29157 15.4C1.65824 15.25 1.43324 14.4583 1.89157 14L5.14157 10.75C6.04157 12.0833 7.46657 13.025 9.1249 13.2667C9.40824 13.3167 9.6999 13.3417 9.9999 13.3417C10.2999 13.3417 10.5916 13.3167 10.8749 13.2667C12.5332 13.025 13.9582 12.0833 14.8582 10.75L18.1082 14C18.5666 14.45 18.3416 15.2417 17.7082 15.3917Z" stroke="white" stroke-linecap="round" stroke-linejoin="round"/>
<path d="M10.4834 4.9835L10.9751 5.96682C11.0417 6.10016 11.2167 6.2335 11.3751 6.2585L12.2667 6.40849C12.8334 6.50016 12.9667 6.91683 12.5584 7.32516L11.8667 8.01682C11.7501 8.13348 11.6834 8.3585 11.7251 8.52516L11.9251 9.38349C12.0834 10.0585 11.7251 10.3251 11.1251 9.96681L10.2917 9.47515C10.1417 9.38348 9.89172 9.38348 9.74172 9.47515L8.90839 9.96681C8.30839 10.3168 7.95006 10.0585 8.10839 9.38349L8.30839 8.52516C8.34173 8.36683 8.28339 8.13348 8.16673 8.01682L7.47506 7.32516C7.06673 6.91683 7.20006 6.50849 7.76673 6.40849L8.65839 6.2585C8.80839 6.2335 8.98339 6.10016 9.05006 5.96682L9.54173 4.9835C9.78339 4.45016 10.2167 4.45016 10.4834 4.9835Z" stroke="white" stroke-linecap="round" stroke-linejoin="round"/>
</svg>
