<svg width="36" height="47" viewBox="0 0 36 47" fill="none" xmlns="http://www.w3.org/2000/svg">
<path d="M25.3811 0H1.54159C0.877879 0 0.339844 0.549732 0.339844 1.61646V46.1607C0.339844 46.4503 0.877879 47 1.54159 47H34.4595C35.1232 47 35.6613 46.4503 35.6613 46.1607V10.8923C35.6613 10.3081 35.5849 10.1201 35.4502 9.98162L25.892 0.215696C25.7565 0.0780536 25.5725 0 25.3811 0Z" fill="#E9E9E0"/>
<path d="M25.8047 0.126953V10.0716H35.5378L25.8047 0.126953Z" fill="#D9D7CA"/>
<path d="M34.4595 46.9998H1.54159C0.877879 46.9998 0.339844 46.4501 0.339844 45.7719V32.7319H35.6613V45.7719C35.6613 46.4501 35.1232 46.9998 34.4595 46.9998Z" fill="#556080"/>
<path d="M15.7547 36.0254V37.1383L11.8127 43.1853L11.5884 43.3691H15.7547V44.482H10.252V43.3691L14.194 37.3221L14.4297 37.1383H10.252V36.0254H15.7547Z" fill="white"/>
<path d="M19.044 44.482H17.6738V36.0254H19.044V44.482Z" fill="white"/>
<path d="M22.4476 44.482H21.0996V36.0254H23.4801C23.8317 36.0254 24.18 36.0825 24.5241 36.1974C24.8683 36.3124 25.1772 36.4845 25.4507 36.7136C25.7243 36.9427 25.9452 37.2205 26.1136 37.5453C26.282 37.8701 26.3666 38.2352 26.3666 38.6414C26.3666 39.0703 26.2951 39.4581 26.153 39.8064C26.0109 40.1547 25.8121 40.4476 25.5575 40.6843C25.3029 40.9209 24.9956 41.1047 24.6367 41.2348C24.2777 41.3649 23.8801 41.4296 23.4464 41.4296H22.4468V44.482H22.4476ZM22.4476 37.0695V40.4199H23.683C23.8473 40.4199 24.0099 40.3914 24.1718 40.3334C24.3328 40.2764 24.4806 40.1824 24.6153 40.0523C24.75 39.9222 24.8585 39.7409 24.9406 39.5076C25.0228 39.2743 25.0638 38.9856 25.0638 38.6414C25.0638 38.5038 25.0449 38.3443 25.008 38.1656C24.9702 37.986 24.8938 37.8139 24.778 37.6494C24.6613 37.4849 24.4987 37.3473 24.2892 37.2365C24.0798 37.1257 23.8021 37.0703 23.4579 37.0703L22.4476 37.0695Z" fill="white"/>
<path d="M18.411 20.1428V18.4642H20.0539V16.7856H18.411V15.1071H20.0539V13.4285H18.411V11.7499H20.0539V10.0714H18.411V8.39279H20.0539V6.71422H18.411V5.03564H16.7681V6.71422H15.1253V8.39279H16.7681V10.0714H15.1253V11.7499H16.7681V13.4285H15.1253V15.1071H16.7681V16.7856H15.1253V18.4642H16.7681V20.1428H13.4824V24.3392C13.4824 26.6531 15.3249 28.5356 17.5896 28.5356C19.8542 28.5356 21.6967 26.6531 21.6967 24.3392V20.1428H18.411ZM20.0539 24.3392C20.0539 25.7274 18.9482 26.8571 17.5896 26.8571C16.2309 26.8571 15.1253 25.7274 15.1253 24.3392V21.8214H20.0539V24.3392Z" fill="#C8BDB8"/>
<path d="M16.7687 25.1786H18.4116C18.865 25.1786 19.233 24.8034 19.233 24.3393C19.233 23.8752 18.865 23.5 18.4116 23.5H16.7687C16.3153 23.5 15.9473 23.8752 15.9473 24.3393C15.9473 24.8034 16.3153 25.1786 16.7687 25.1786Z" fill="#C8BDB8"/>
</svg>
